<svg xmlns="http://www.w3.org/2000/svg" viewBox="0 0 3514.23 3056">
    <defs>
        <style>
            .cls-1,.cls-2{fill:#231f20;stroke:#231f20;stroke-miterlimit:10;}.cls-2{stroke-width:8px;}</style>
    </defs>
    <title>TrecaBeogradska Gimnazija logo</title>
    <g id="Layer_2" data-name="Layer 2">
        <g id="Layer_1-2" data-name="Layer 1">
            <path class="cls-1"
                d="M837.18,2658.87l1.54,32.81H834.8c-.75-5.78-1.79-9.91-3.09-12.38a20.69,20.69,0,0,0-8.51-8.82c-3.55-1.9-8.2-2.84-14-2.84H789.51v106.88q0,12.9,2.79,16.09,3.91,4.33,12.07,4.34h4.85v3.81H749.9V2795h5q8.86,0,12.59-5.37,2.26-3.3,2.27-15.06V2667.64H752.89q-9.81,0-13.93,1.44a19.12,19.12,0,0,0-9.18,7.53q-3.82,5.58-4.54,15.07h-3.92l1.65-32.81Z"></path>
            <path class="cls-1"
                d="M887.32,2733.25V2774q0,13.22,2.88,16.41,3.93,4.53,11.87,4.54h5.36v3.81H847.49V2795h5.26q8.88,0,12.69-5.78,2.07-3.2,2.07-15.17v-90.37q0-13.2-2.79-16.4-4-4.55-12-4.54h-5.26v-3.82h51.28q18.76,0,29.61,3.87a40.76,40.76,0,0,1,18.26,13.05,33.55,33.55,0,0,1,7.42,21.77q0,17.11-11.29,27.85t-31.93,10.73a90.42,90.42,0,0,1-10.94-.72Q894,2734.7,887.32,2733.25Zm0-5.88q5.46,1,9.69,1.55a62.06,62.06,0,0,0,7.23.52q10.72,0,18.51-8.31t7.79-21.51a38.66,38.66,0,0,0-3.71-16.87,25.68,25.68,0,0,0-10.52-11.66,30.87,30.87,0,0,0-15.48-3.86,60.79,60.79,0,0,0-13.51,2Z"></path>
            <path class="cls-1"
                d="M1005.65,2666.5v55.3h30.74q12,0,16-3.61,5.37-4.74,6-16.71h3.81v48.69h-3.81q-1.45-10.22-2.89-13.1a12.88,12.88,0,0,0-6.09-5.67q-4.23-2.07-13-2.07h-30.74v46.12q0,9.28.82,11.29a6.48,6.48,0,0,0,2.89,3.2q2.07,1.18,7.84,1.19h23.73q11.86,0,17.23-1.65a25.7,25.7,0,0,0,10.32-6.5q6.39-6.39,13.1-19.29h4.13l-12.07,35.07H965.83V2795h4.95a19.56,19.56,0,0,0,9.39-2.38,8.66,8.66,0,0,0,4.48-5q1.19-3.3,1.19-13.51v-90.89q0-13.32-2.68-16.41-3.72-4.12-12.38-4.12h-4.95v-3.82h107.81l1.54,30.64h-4q-2.16-11-4.8-15.17a16.43,16.43,0,0,0-7.79-6.29q-4.12-1.55-14.54-1.55Z"></path>
            <path class="cls-1"
                d="M1159.47,2723.45q18.78-22,38.79-22,10.62,0,18.11,5.31t9.28,13.15q1.8,7.84,1.81,30.75v22.08q0,11.76,1.44,14.95a10.19,10.19,0,0,0,4.95,5q3.51,1.76,10.84,2.27v3.81h-54.17V2795q11.46-.93,14.34-4.8t2.89-17.38v-22.08q0-14.34-1.13-21.05a17,17,0,0,0-5.52-10.47,16.75,16.75,0,0,0-11.3-3.77q-14.44,0-30.33,19.61v37.76q0,12.89,1.7,15.68a12.14,12.14,0,0,0,4.9,4.43q3.2,1.65,12.38,2.07v3.81h-59V2795q9.39-.21,13.36-2.07a10.41,10.41,0,0,0,5.42-5.1q1.44-3.26,1.44-15V2667.64h-10.31q-17.24,0-22.55,5.52t-7.17,16.35h-3.5l1-30.64h106.36l.93,30.64h-3.61q-1.14-8.25-4.69-13.36a17.16,17.16,0,0,0-8.67-6.81q-5.1-1.7-17.18-1.7h-10.83Z"></path>
            <path class="cls-1"
                d="M1343.83,2751.93h-54.16l-9.49,22.07c-2.34,5.44-3.51,9.49-3.51,12.18a7.07,7.07,0,0,0,3,5.62q3,2.43,13.16,3.15v3.81h-44.06V2795q8.78-1.56,11.35-4,5.27-5,11.66-20.11L1321,2655.67h3.61l48.7,116.37q5.88,14,10.67,18.21t13.36,4.7v3.81h-55.19V2795q8.35-.42,11.3-2.79a7.19,7.19,0,0,0,2.94-5.78q0-4.53-4.13-14.34Zm-2.89-7.64-23.73-56.53-24.34,56.53Z"></path>
            <path class="cls-1"
                d="M1556.66,2658.87l1.45,30.54h-3.72q-3.3-14.86-10.16-18.88t-24.4-4h-23.52v55.4h5.57q25.69,0,37.76,3.25a37.34,37.34,0,0,1,19.65,12.44q7.59,9.18,7.59,22.07,0,15.59-11.56,27.34t-39.82,11.76h-59.22V2795q13-.42,16.61-4.13t3.61-17.54v-88.93q0-10.62-1.49-14.34a9.34,9.34,0,0,0-4.9-5.26q-3.4-1.55-12.59-2.06v-3.82Zm-60.35,131.54a96.44,96.44,0,0,0,14.13,1.44,35.19,35.19,0,0,0,23-8.46q10.26-8.46,10.27-23.42,0-15.46-10.73-22.95t-27.24-7.48a54.67,54.67,0,0,0-9.39.82Z"></path>
            <path class="cls-1"
                d="M1618.05,2666.5v55.3h30.74q12,0,16-3.61,5.37-4.74,6-16.71h3.81v48.69h-3.81q-1.45-10.22-2.89-13.1a12.88,12.88,0,0,0-6.09-5.67q-4.23-2.07-13-2.07h-30.74v46.12q0,9.28.82,11.29a6.48,6.48,0,0,0,2.89,3.2q2.07,1.18,7.84,1.19h23.73q11.87,0,17.23-1.65a25.7,25.7,0,0,0,10.32-6.5q6.39-6.39,13.1-19.29h4.13L1686,2798.76H1578.23V2795h5a19.56,19.56,0,0,0,9.39-2.38,8.66,8.66,0,0,0,4.48-5q1.18-3.3,1.19-13.51v-90.89q0-13.32-2.68-16.41-3.72-4.12-12.38-4.12h-5v-3.82H1686l1.54,30.64h-4q-2.18-11-4.8-15.17a16.43,16.43,0,0,0-7.79-6.29q-4.12-1.55-14.54-1.55Z"></path>
            <path class="cls-1"
                d="M1780.23,2655.67q27.23,0,47.2,20.69t20,51.63q0,31.88-20.12,52.93t-48.69,21q-28.89,0-48.54-20.53t-19.66-53.13q0-33.32,22.7-54.37Q1752.79,2655.68,1780.23,2655.67Zm-2,7.53q-18.78,0-30.13,13.93-14.13,17.32-14.13,50.76,0,34.24,14.65,52.72,11.23,14,29.71,14,19.71,0,32.55-15.38t12.84-48.48q0-35.91-14.13-53.55Q1798.28,2663.21,1778.27,2663.2Z"></path>
            <path class="cls-1"
                d="M1971.6,2658.87l.52,32.7h-4q-.4-9.9-4.23-15.88t-9.33-7.59q-5.52-1.59-15.94-1.6h-39.21v106.78q0,13.83,3.56,17.54t16.46,4.13v3.81h-60V2795q13-.42,16.61-4.13t3.61-17.54v-88.93q0-13.82-3.61-17.54t-16.61-4.12v-3.82Z"></path>
            <path class="cls-1"
                d="M2021,2733.25V2774q0,13.22,2.89,16.41,3.91,4.53,11.86,4.54h5.37v3.81H1981.2V2795h5.26q8.86,0,12.69-5.78,2.05-3.2,2.06-15.17v-90.37q0-13.2-2.79-16.4-4-4.55-12-4.54h-5.26v-3.82h51.27q18.78,0,29.61,3.87a40.76,40.76,0,0,1,18.26,13.05,33.56,33.56,0,0,1,7.43,21.77q0,17.11-11.3,27.85t-31.93,10.73a90.26,90.26,0,0,1-10.93-.72Q2027.72,2734.7,2021,2733.25Zm0-5.88c3.64.69,6.88,1.21,9.7,1.55a61.91,61.91,0,0,0,7.22.52q10.72,0,18.52-8.31t7.79-21.51a38.67,38.67,0,0,0-3.72-16.87,25.62,25.62,0,0,0-10.52-11.66,30.87,30.87,0,0,0-15.48-3.86,60.87,60.87,0,0,0-13.51,2Z"></path>
            <path class="cls-1"
                d="M2164.83,2751.93h-54.16l-9.49,22.07c-2.34,5.44-3.51,9.49-3.51,12.18a7.1,7.1,0,0,0,3,5.62q3,2.43,13.16,3.15v3.81h-44V2795q8.76-1.56,11.35-4,5.25-5,11.65-20.11L2142,2655.67h3.61l48.7,116.37q5.88,14,10.68,18.21t13.36,4.7v3.81h-55.2V2795q8.36-.42,11.3-2.79a7.19,7.19,0,0,0,2.94-5.78q0-4.53-4.13-14.34Zm-2.88-7.64-23.73-56.53-24.35,56.53Z"></path>
            <path class="cls-1"
                d="M2245.61,2658.87h115.45v3.82q-13,.41-16.61,4.12t-3.61,17.54v77.48q0,22.49,2.58,27.8t16.71,5.32V2839h-3.51q-3.09-15.27-9.95-24.61t-15.58-12.48q-8.73-3.15-20.89-3.15h-35.7q-23.41,0-34.41,12.69T2226.94,2839h-3.51V2795q16.61-1.45,27-19.92t14.45-45.34q4-26.86,4-44.1,0-10.32-2.58-15.17t-6.14-6.08q-3.55-1.24-14.6-1.65Zm33.64,7.63q-2.58,61.18-9.8,85.84t-19.4,38.79h51.79q13.82,0,16.56-2.43t2.73-15.73V2666.5Z"></path>
            <path class="cls-1"
                d="M2492.08,2655.67l3.2,47.56h-3.2q-6.4-21.36-18.26-30.74t-28.48-9.39a46.36,46.36,0,0,0-25.17,7.07q-11.25,7.07-17.69,22.54t-6.45,38.48q0,19,6.09,32.91a45.56,45.56,0,0,0,18.31,21.35,52.59,52.59,0,0,0,27.91,7.43,48.31,48.31,0,0,0,24-5.83q10.43-5.82,22.91-23.16l3.2,2.07q-10.53,18.67-24.56,27.34T2440.6,2802q-34.77,0-53.85-25.79Q2372.5,2757,2372.51,2731a80.26,80.26,0,0,1,9.39-38.48,67.86,67.86,0,0,1,25.84-27.18,69.82,69.82,0,0,1,36-9.65,65.91,65.91,0,0,1,29.92,7.43q4.33,2.27,6.19,2.27a6.8,6.8,0,0,0,4.85-2,16.12,16.12,0,0,0,3.82-7.74Z"></path>
            <path class="cls-1"
                d="M2646,2795v3.81h-36.1q-5.88-9.37-24.76-35.43t-23-28.89q-4.12-2.83-12.48-2.94v41.78q0,13.83,3.56,17.54t16.66,4.13v3.81h-60.25V2795q12.89-.42,16.56-4.08t3.66-17.59v-88.93q0-13.82-3.61-17.54t-16.61-4.12v-3.82h60.25v3.82q-13.11.41-16.66,4.12t-3.56,17.54v39c7.49-.07,12.69-.57,15.57-1.5s6.14-3,9.75-6.34a41.83,41.83,0,0,0,8.57-10.68,164.56,164.56,0,0,0,8.1-18.83q4.64-12.27,7.58-17.07t9.44-8.26a32.56,32.56,0,0,1,15.47-3.45q15.88,0,15.89,11.14a9,9,0,0,1-3.15,6.81,10.26,10.26,0,0,1-7.17,2.89q-2.88,0-9.69-3.3-6-3-8.36-3c-2.2,0-4.09,1.16-5.67,3.46s-4.1,8.17-7.54,17.59q-9.9,26.42-25.27,33.53,9.39,1.65,26,25.69,17.64,25.48,25.89,34T2646,2795Z"></path>
            <path class="cls-1"
                d="M2743.39,2751.93h-54.16l-9.49,22.07c-2.34,5.44-3.51,9.49-3.51,12.18a7.08,7.08,0,0,0,3.05,5.62q3,2.43,13.15,3.15v3.81h-44V2795q8.76-1.56,11.35-4,5.25-5,11.65-20.11l49.21-115.14h3.62L2772.9,2772q5.88,14,10.68,18.21t13.36,4.7v3.81h-55.2V2795q8.36-.42,11.3-2.79a7.19,7.19,0,0,0,2.94-5.78q0-4.53-4.13-14.34Zm-2.88-7.64-23.73-56.53-24.35,56.53Z"></path>
            <path class="cls-1"
                d="M1245.31,2912.41l.51,32.71h-4q-.42-9.91-4.23-15.89t-9.34-7.58q-5.52-1.61-15.94-1.6h-39.2v106.77q0,13.83,3.56,17.54t16.45,4.13v3.82h-60v-3.82q13-.4,16.61-4.13t3.61-17.54v-88.93q0-13.82-3.61-17.53t-16.61-4.13v-3.82Z"></path>
            <path class="cls-1"
                d="M1360.13,2935.52q0-12.58-4.07-15.94t-16.46-3.35v-3.82h60.56v3.82q-13,.41-16.61,4.13t-3.61,17.53v88.93q0,13.83,3.61,17.54t16.61,4.13v3.82H1339.6v-3.82q13.31-.4,16.92-4.18t3.61-17.49v-80.26l-64.89,83.15q.1,9,1.18,12c.73,2,2.41,3.63,5.06,4.8s7.34,1.82,14.08,2v3.82h-60.35v-3.82q13-.4,16.61-4.13t3.61-17.54v-88.93q0-13.82-3.61-17.53t-16.61-4.13v-3.82h60.35v3.82q-13.1.41-16.71,4.13t-3.61,17.53v80.58Z"></path>
            <path class="cls-1"
                d="M1490.43,3052.31l-54.06-117.72v93.47q0,12.9,2.79,16.1,3.81,4.32,12.07,4.33h5v3.82h-48.7v-3.82h5q8.86,0,12.58-5.37,2.26-3.3,2.27-15.06v-91.4q0-9.28-2.06-13.42a11.43,11.43,0,0,0-5.31-5q-3.87-2-12.44-2v-3.82h39.62l50.76,109.46,49.93-109.46h39.62v3.82h-4.85q-9,0-12.69,5.36-2.26,3.32-2.27,15.07v91.4q0,12.9,2.89,16.1,3.81,4.32,12.07,4.33h4.85v3.82H1528v-3.82h5q9,0,12.58-5.37,2.26-3.3,2.27-15.06v-93.47l-54,117.72Z"></path>
            <path class="cls-1"
                d="M1635.28,2977.3h65v-40q0-10.74-1.34-14.14a9.26,9.26,0,0,0-4.33-4.44,19,19,0,0,0-9.39-2.47h-5v-3.82h59.83v3.82h-4.95a19.66,19.66,0,0,0-9.39,2.37,8.65,8.65,0,0,0-4.48,5q-1.18,3.34-1.19,13.67v90.27q0,10.62,1.34,14a9.27,9.27,0,0,0,4.23,4.43,19.57,19.57,0,0,0,9.49,2.48h4.95v3.82h-59.83v-3.82h5q8.57,0,12.48-5.06,2.58-3.3,2.58-15.88v-42.61h-65v42.61q0,10.62,1.34,14A9.2,9.2,0,0,0,1641,3046a19,19,0,0,0,9.39,2.48h5.05v3.82h-59.94v-3.82h5q8.65,0,12.58-5.06,2.48-3.3,2.48-15.88v-90.27q0-10.74-1.34-14.14a9.33,9.33,0,0,0-4.23-4.44,19.56,19.56,0,0,0-9.49-2.47h-5v-3.82h59.94v3.82h-5.05a19.66,19.66,0,0,0-9.39,2.37,8.91,8.91,0,0,0-4.43,5q-1.24,3.34-1.24,13.67Z"></path>
            <path class="cls-1"
                d="M1841.09,3005.47h-54.16l-9.49,22.08q-3.51,8.14-3.51,12.17a7.07,7.07,0,0,0,3,5.62q3,2.43,13.15,3.15v3.82h-44.05v-3.82q8.76-1.54,11.35-4,5.25-5,11.65-20.12l49.21-115.14h3.62l48.69,116.38q5.88,14,10.68,18.2t13.36,4.7v3.82h-55.2v-3.82q8.37-.4,11.3-2.79a7.17,7.17,0,0,0,2.94-5.77q0-4.54-4.13-14.34Zm-2.88-7.64-23.73-56.53-24.35,56.53Z"></path>
            <path class="cls-1"
                d="M1902.27,2950.07v-40.65h3.61q1.65,6.81,7.64,6.81,2.26,0,9.7-2.79a71.11,71.11,0,0,1,24.45-4.23q17.32,0,27.85,10.42T1986,2944a31.74,31.74,0,0,1-7.94,21.72q-7.95,9-21,13.25a38,38,0,0,1,23,13,36.58,36.58,0,0,1,8.77,24.4,34.8,34.8,0,0,1-13.41,28.27q-13.41,10.93-33.32,10.93-29.61,0-45.91-28.06l3.5-2.27a45.67,45.67,0,0,0,15.27,14.76,40.31,40.31,0,0,0,21.56,6.19q13.73,0,21.31-9.13t7.58-22.34a31,31,0,0,0-9.59-23q-9.6-9.37-31.78-9.38v-6.81q15.69,0,23.63-3.3a28.32,28.32,0,0,0,12.89-10.73,30.37,30.37,0,0,0,5-17.23q0-11.36-6.91-18.57t-18.77-7.22q-14.76,0-23.06,8.71t-10.89,23Z"></path>
            <path class="cls-1"
                d="M2106.34,2935.52q0-12.58-4.08-15.94t-16.45-3.35v-3.82h60.56v3.82q-13,.41-16.61,4.13t-3.61,17.53v88.93q0,13.83,3.61,17.54t16.61,4.13v3.82h-60.56v-3.82q13.3-.4,16.92-4.18t3.61-17.49v-80.26l-64.89,83.15q.09,9,1.18,12t5.06,4.8q4,1.75,14.08,2v3.82h-60.35v-3.82q13-.4,16.61-4.13t3.61-17.54v-88.93q0-13.82-3.61-17.53t-16.61-4.13v-3.82h60.35v3.82q-13.11.41-16.71,4.13t-3.61,17.53v80.58Z"></path>
            <path class="cls-1"
                d="M2171.23,2916.23v-3.82h59.94v3.82h-5.06c-5.7,0-9.87,1.68-12.48,5.05q-2.48,3.31-2.47,15.89v68.4q0,15.78-3.46,25.59a39.81,39.81,0,0,1-11.92,17.07,30.26,30.26,0,0,1-20.42,7.27q-9.71,0-15.27-4.79t-5.57-11q0-5.05,2.58-7.63a11.19,11.19,0,0,1,7.94-3.2,9.09,9.09,0,0,1,5.93,2.16q2.64,2.17,6.66,11.56,2.37,5.57,6.08,5.57c1.86,0,3.6-1.14,5.21-3.4s2.43-6.3,2.43-12.08v-95.53q0-10.62-1.34-14a9.28,9.28,0,0,0-4.34-4.44,19,19,0,0,0-9.38-2.47Z"></path>
            <path class="cls-1"
                d="M2329.08,3005.47h-54.17l-9.49,22.08q-3.51,8.14-3.51,12.17a7.07,7.07,0,0,0,3.05,5.62q3,2.43,13.15,3.15v3.82h-44.05v-3.82q8.76-1.54,11.35-4,5.27-5,11.66-20.12l49.21-115.14h3.61l48.69,116.38q5.88,14,10.68,18.2t13.36,4.7v3.82h-55.2v-3.82q8.37-.4,11.3-2.79a7.17,7.17,0,0,0,2.94-5.77q0-4.54-4.12-14.34Zm-2.89-7.64-23.73-56.53-24.35,56.53Z"></path>
            <line class="cls-2" x1="1076.03" y1="2978.2" x2="723.4" y2="2978.2"></line>
            <line class="cls-2" x1="2796.01" y1="2978.2" x2="2443.38" y2="2978.2"></line>
            <path class="cls-1"
                d="M1595.09,896.55a46.45,46.45,0,0,0,13,8.84,39.94,39.94,0,0,0,15.84,3.55h.82A39.88,39.88,0,0,0,1652,898.22a24.62,24.62,0,0,0,2.6-2.68,26.14,26.14,0,0,0,2.36-2.94l1.25-1.78a5.17,5.17,0,0,0,.44-.7l1.16-2,.78-1.6a35.26,35.26,0,0,0,3.36-13.66c.4-9.08-3.3-18.2-9.53-23.7a25.16,25.16,0,0,0-17.12-6.89,20.55,20.55,0,0,0-4.13.39c-6.49,1.11-12.22,5.4-14.58,10.86a22,22,0,0,0-1.92,10.89l.19,3.52H1624l3.71-.07,0-3.71a11,11,0,0,1,1.26-5.38,7.55,7.55,0,0,1,6-3.61,8.77,8.77,0,0,1,1.15-.06,11.55,11.55,0,0,1,8.56,4,15.62,15.62,0,0,1,3.84,12.63,19.67,19.67,0,0,1-2.39,7.26l-.37.69-1.23,1.81,0,0-.88,1a11.87,11.87,0,0,1-1.37,1.43,11,11,0,0,1-1.54,1.35,22,22,0,0,1-13.67,4.81,20,20,0,0,1-2.15-.11,20.82,20.82,0,0,1-7.81-2.38,26.47,26.47,0,0,1-6.94-5.59,27.55,27.55,0,0,1-6.84-16,25.55,25.55,0,0,1,.58-8.38,23.14,23.14,0,0,1,1.18-3.78s.67-1.62.73-1.72c.36-.64.71-1.25,1.09-2,.06-.13,1.73-2.59,1.73-2.59l1.38-1.7a28.64,28.64,0,0,1,2.3-2.64,34.81,34.81,0,0,1,5.85-5.12,31.81,31.81,0,0,1,13.11-4.68,74.91,74.91,0,0,1,10.93-.68c1.2,0,2.36,0,3.46.05,3.89.11,7.82.32,12,.68l11.45,1a6.92,6.92,0,0,0,.91.06h.09c1.83.13,3.87.36,6.14.6,3.86.43,8.68,1,14.25,1.21,3,.13,6.23.31,9.58.51,6.09.35,13,.73,20.07.9l4.92.13c3.89.11,7.84.22,11.81.22l17.28.13,17.22-.14c3.75,0,7.46-.14,11.09-.25l5.6-.14c3.93-.06,7.75-.27,11.45-.47l18.25-.93c5.74-.28,10.93-.75,15.1-1.13,2.2-.19,4.18-.37,6-.5,2.44-.23,4.38-.52,5.51-.71l5.5-.51c4.26-.35,8.24-.57,12.15-.68,1.12,0,2.29-.05,3.48-.05a74.82,74.82,0,0,1,10.93.68,31.77,31.77,0,0,1,12.94,4.56,36.49,36.49,0,0,1,6.24,5.45,27.69,27.69,0,0,1,2.08,2.42l.81,1,.38.43L1900,849h0l.43.64a3.24,3.24,0,0,1,.36.59c.33.63.67,1.25.93,1.67s.26.62.41.94l.39.92a26.12,26.12,0,0,1,1.79,12.26,27.42,27.42,0,0,1-6.81,15.92,26.57,26.57,0,0,1-7,5.64,20.75,20.75,0,0,1-7.83,2.37,18.64,18.64,0,0,1-2.11.11,22.21,22.21,0,0,1-13.85-4.94,11.49,11.49,0,0,1-1.49-1.35,9.36,9.36,0,0,1-1.33-1.43l-.89-1-1-1.4-.54-1a19.73,19.73,0,0,1-2.39-7.26,15.69,15.69,0,0,1,3.95-12.72,11.43,11.43,0,0,1,8.46-3.86,8.4,8.4,0,0,1,1.19.07,7.49,7.49,0,0,1,6,3.66,10.72,10.72,0,0,1,1.22,5.06l.08,3.65h10.87l.17-3.55a21.71,21.71,0,0,0-1.89-10.39,19.57,19.57,0,0,0-14.49-10.91,20.49,20.49,0,0,0-4.25-.42,25,25,0,0,0-17,6.8c-6.34,5.6-10,14.71-9.64,23.78a35.8,35.8,0,0,0,3.38,13.73l.87,1.76,1,1.77a8.15,8.15,0,0,0,.55.88l1.11,1.56a41.66,41.66,0,0,0,4.91,5.62A40,40,0,0,0,1883,909h.82a40.06,40.06,0,0,0,15.85-3.55,46.93,46.93,0,0,0,13-8.87,49.49,49.49,0,0,0,14.46-27.61,48.72,48.72,0,0,0,.16-15.69,46.87,46.87,0,0,0-1.77-7.7l-.34-1c-.28-.86-.56-1.7-1-2.76l-1.63-3.55a17.92,17.92,0,0,0-.91-1.77l-1.55-2.74-.47-.73-1.37-2a53.14,53.14,0,0,0-3.18-4.34,61.78,61.78,0,0,0-9.8-10,59.58,59.58,0,0,0-23.5-10.9,116.32,116.32,0,0,0-19.28-2.48c-4.17-.2-8.18-.3-12.65-.3l-12.9.15c-.38,0-.81,0-1.11.07a4.43,4.43,0,0,0-.78.11l-2.42.1c-4.25.22-9.33.45-15.12.59-3,.06-6.21.15-9.54.24-6.24.16-13,.33-20,.41l-33.83.28-33.9-.27c-7,0-13.71-.22-19.92-.39-3.35-.09-6.56-.19-9.6-.24-5.71-.13-10.73-.38-14.94-.58l-3.78-.2a9,9,0,0,0-1.29-.12l-3.06,0c-2.37-.08-4.33-.1-5.52-.1l-4.28,0c-4.46,0-8.47.1-12.69.31a114.89,114.89,0,0,0-19.23,2.47,59.58,59.58,0,0,0-23.6,11,60.8,60.8,0,0,0-9.57,9.74,52.09,52.09,0,0,0-3.31,4.5l-1.79,2.64-1.56,2.76a18.68,18.68,0,0,0-1,1.86l-1.69,3.7c-.34.89-.63,1.74-.91,2.6l-.36,1.07a47.74,47.74,0,0,0-1.75,7.6,50.2,50.2,0,0,0,14.66,43.38Z"></path>
            <rect class="cls-1" x="1613.49" y="761.25" width="280.72" height="33.04"></rect>
            <path class="cls-1"
                d="M1023.62,896.55a46.74,46.74,0,0,0,13,8.84,40,40,0,0,0,15.84,3.55h.82a39.86,39.86,0,0,0,27.24-10.73,23.73,23.73,0,0,0,2.6-2.68,24.06,24.06,0,0,0,2.36-2.94l1.26-1.78a7.62,7.62,0,0,0,.44-.7l1.16-2,.77-1.6a34.91,34.91,0,0,0,3.36-13.66c.41-9.08-3.29-18.2-9.52-23.7a25.2,25.2,0,0,0-17.13-6.89,20.45,20.45,0,0,0-4.12.39c-6.49,1.11-12.23,5.4-14.59,10.86a21.88,21.88,0,0,0-1.91,10.89l.19,3.52h7.17l3.71-.07,0-3.71a10.87,10.87,0,0,1,1.26-5.38,7.53,7.53,0,0,1,6-3.61,8.86,8.86,0,0,1,1.15-.06,11.55,11.55,0,0,1,8.56,4,15.58,15.58,0,0,1,3.84,12.63,19.67,19.67,0,0,1-2.39,7.26l-.37.69-1.22,1.81,0,0-.87,1a11.87,11.87,0,0,1-1.37,1.43,11.16,11.16,0,0,1-1.55,1.35A21.94,21.94,0,0,1,1055.6,890a19.73,19.73,0,0,1-2.15-.11,20.87,20.87,0,0,1-7.82-2.38,26.6,26.6,0,0,1-6.93-5.59,27.43,27.43,0,0,1-6.84-16,25.29,25.29,0,0,1,.57-8.38,24.06,24.06,0,0,1,1.19-3.78s.67-1.62.72-1.72c.36-.64.71-1.25,1.09-2,.07-.13,1.74-2.59,1.74-2.59l1.37-1.7a28.64,28.64,0,0,1,2.3-2.64,35.2,35.2,0,0,1,5.85-5.12,31.9,31.9,0,0,1,13.12-4.68,74.82,74.82,0,0,1,10.93-.68c1.19,0,2.35,0,3.45.05,3.89.11,7.83.32,12,.68l11.45,1a6.92,6.92,0,0,0,.91.06h.1c1.83.13,3.86.36,6.13.6,3.87.43,8.68,1,14.26,1.21,3,.13,6.23.31,9.58.51,6.08.35,13,.73,20.06.9l4.92.13c3.89.11,7.85.22,11.82.22l17.28.13,17.22-.14c3.75,0,7.45-.14,11.09-.25l5.6-.14c3.92-.06,7.75-.27,11.45-.47l18.25-.93c5.74-.28,10.93-.75,15.09-1.13,2.2-.19,4.18-.37,6-.5,2.44-.23,4.38-.52,5.52-.71l5.49-.51c4.26-.35,8.25-.57,12.15-.68,1.13,0,2.29-.05,3.49-.05a74.82,74.82,0,0,1,10.93.68,31.77,31.77,0,0,1,12.94,4.56,36.44,36.44,0,0,1,6.23,5.45,29.59,29.59,0,0,1,2.09,2.42l.81,1,.38.43,1.16,1.76h0l.44.64a3.24,3.24,0,0,1,.36.59c.32.63.67,1.25.92,1.67s.27.62.41.94l.39.92a25.7,25.7,0,0,1,1.24,3.89,26.45,26.45,0,0,1,.56,8.37,27.42,27.42,0,0,1-6.81,15.92,26.57,26.57,0,0,1-7,5.64,20.8,20.8,0,0,1-7.84,2.37,18.64,18.64,0,0,1-2.11.11,22.2,22.2,0,0,1-13.84-4.94,11.49,11.49,0,0,1-1.49-1.35,9.91,9.91,0,0,1-1.34-1.43l-.89-1-1-1.4-.55-1a19.92,19.92,0,0,1-2.39-7.26,15.69,15.69,0,0,1,4-12.72,11.43,11.43,0,0,1,8.46-3.86,8.62,8.62,0,0,1,1.2.07,7.47,7.47,0,0,1,6,3.66,10.63,10.63,0,0,1,1.23,5.06l.07,3.65h10.88l.16-3.55a21.56,21.56,0,0,0-1.88-10.39,19.57,19.57,0,0,0-14.5-10.91,20.49,20.49,0,0,0-4.25-.42,25.06,25.06,0,0,0-17,6.8c-6.34,5.6-10,14.71-9.63,23.78a35.62,35.62,0,0,0,3.38,13.73l.86,1.76,1,1.77a8.15,8.15,0,0,0,.55.88l1.11,1.56a24.86,24.86,0,0,0,2.32,2.91,25.82,25.82,0,0,0,2.6,2.71A40,40,0,0,0,1311.51,909h.81a40,40,0,0,0,15.85-3.55,46.64,46.64,0,0,0,13-8.87,49.43,49.43,0,0,0,14.46-27.61,48.43,48.43,0,0,0,.16-15.69,44.91,44.91,0,0,0-1.77-7.7l-.33-1c-.29-.86-.57-1.7-1-2.76l-1.62-3.55a17.55,17.55,0,0,0-.92-1.77l-1.55-2.74-.46-.73-1.37-2a53.14,53.14,0,0,0-3.18-4.34,62.3,62.3,0,0,0-9.81-10,59.61,59.61,0,0,0-23.49-10.9,116.42,116.42,0,0,0-19.29-2.48c-4.17-.2-8.18-.3-12.64-.3l-12.9.15c-.39,0-.81,0-1.12.07a4.2,4.2,0,0,0-.77.11l-2.42.1c-4.26.22-9.34.45-15.13.59-3,.06-6.21.15-9.54.24-6.23.16-13,.33-20,.41l-33.82.28-33.9-.27c-7,0-13.72-.22-19.92-.39-3.36-.09-6.57-.19-9.6-.24-5.71-.13-10.73-.38-15-.58l-3.78-.2a9,9,0,0,0-1.28-.12l-3.06,0c-2.38-.08-4.33-.1-5.53-.1l-4.27,0c-4.47,0-8.48.1-12.69.31a115,115,0,0,0-19.24,2.47,59.64,59.64,0,0,0-23.6,11,61.23,61.23,0,0,0-9.57,9.74,54.28,54.28,0,0,0-3.31,4.5l-1.78,2.64-1.56,2.76a15.21,15.21,0,0,0-1,1.86l-1.69,3.7c-.35.89-.64,1.74-.91,2.6l-.36,1.07a47.74,47.74,0,0,0-1.75,7.6,50.13,50.13,0,0,0,14.65,43.38Z"></path>
            <rect class="cls-1" x="1042.03" y="761.25" width="280.72" height="33.04"></rect>
            <polygon class="cls-1"
                points="2516.8 622.6 2516.8 729.65 2485 729.65 2485 754.47 2174 754.47 2174 729.65 1909.57 729.65 1909.57 755.11 1598.13 755.11 1598.13 729.65 1338.11 729.65 1338.11 755.11 1026.67 755.11 1026.67 729.65 992.9 729.65 992.9 622.6 2516.8 622.6"></polygon>
            <path class="cls-1"
                d="M2168.55,896.55a46.74,46.74,0,0,0,13,8.84,40,40,0,0,0,15.84,3.55h.82a39.86,39.86,0,0,0,27.24-10.73,23.73,23.73,0,0,0,2.6-2.68,24.06,24.06,0,0,0,2.36-2.94l1.26-1.78c.38-.59.43-.68.44-.7l1.15-2,.78-1.6a35.09,35.09,0,0,0,3.36-13.66c.41-9.08-3.29-18.2-9.52-23.7a25.2,25.2,0,0,0-17.13-6.89,20.45,20.45,0,0,0-4.12.39c-6.49,1.11-12.23,5.4-14.59,10.86a21.88,21.88,0,0,0-1.91,10.89l.19,3.52h7.17l3.71-.07,0-3.71a10.87,10.87,0,0,1,1.26-5.38,7.53,7.53,0,0,1,6-3.61,8.77,8.77,0,0,1,1.15-.06,11.55,11.55,0,0,1,8.56,4,15.58,15.58,0,0,1,3.84,12.63,19.67,19.67,0,0,1-2.39,7.26l-.37.69L2218,881.4l0,0-.87,1a12.71,12.71,0,0,1-1.37,1.43,11.16,11.16,0,0,1-1.55,1.35,21.94,21.94,0,0,1-13.66,4.81,19.73,19.73,0,0,1-2.15-.11,20.87,20.87,0,0,1-7.82-2.38,26.8,26.8,0,0,1-6.94-5.59,27.55,27.55,0,0,1-6.84-16,25.55,25.55,0,0,1,.58-8.38,24.06,24.06,0,0,1,1.19-3.78s.67-1.62.72-1.72c.36-.64.71-1.25,1.09-2,.07-.13,1.73-2.59,1.73-2.59l1.38-1.7a28.64,28.64,0,0,1,2.3-2.64,35.2,35.2,0,0,1,5.85-5.12,31.9,31.9,0,0,1,13.12-4.68,74.82,74.82,0,0,1,10.93-.68c1.19,0,2.35,0,3.45.05,3.89.11,7.82.32,12,.68l11.45,1a6.92,6.92,0,0,0,.91.06h.1c1.82.13,3.86.36,6.13.6,3.87.43,8.68,1,14.26,1.21,3,.13,6.23.31,9.58.51,6.08.35,13,.73,20.06.9l4.92.13c3.89.11,7.85.22,11.82.22l17.28.13,17.21-.14c3.76,0,7.46-.14,11.1-.25l5.6-.14c3.92-.06,7.75-.27,11.45-.47l18.25-.93c5.74-.28,10.92-.75,15.09-1.13,2.2-.19,4.18-.37,6-.5,2.44-.23,4.38-.52,5.52-.71l5.49-.51c4.26-.35,8.25-.57,12.15-.68,1.13,0,2.29-.05,3.48-.05a74.87,74.87,0,0,1,10.94.68,31.82,31.82,0,0,1,12.94,4.56,36.44,36.44,0,0,1,6.23,5.45,27.69,27.69,0,0,1,2.08,2.42l.82,1,.38.43,1.16,1.76h0l.44.64a2.78,2.78,0,0,1,.35.59c.33.63.67,1.25.93,1.67s.27.62.41.94l.39.92a24.7,24.7,0,0,1,1.23,3.89,26.15,26.15,0,0,1,.57,8.37A27.48,27.48,0,0,1,2471,881.9a26.57,26.57,0,0,1-7,5.64,20.86,20.86,0,0,1-7.84,2.37,18.64,18.64,0,0,1-2.11.11,22.18,22.18,0,0,1-13.84-4.94,12.2,12.2,0,0,1-1.5-1.35,10.48,10.48,0,0,1-1.33-1.43l-.89-1-1-1.4-.55-1a19.92,19.92,0,0,1-2.39-7.26,15.69,15.69,0,0,1,3.95-12.72,11.43,11.43,0,0,1,8.46-3.86,8.62,8.62,0,0,1,1.2.07,7.47,7.47,0,0,1,6,3.66,10.63,10.63,0,0,1,1.23,5.06l.07,3.65h10.88l.16-3.55a21.56,21.56,0,0,0-1.88-10.39,19.58,19.58,0,0,0-14.5-10.91,20.49,20.49,0,0,0-4.25-.42,25.06,25.06,0,0,0-17,6.8c-6.34,5.6-10,14.71-9.63,23.78a35.62,35.62,0,0,0,3.38,13.73l.86,1.76,1,1.77a8.15,8.15,0,0,0,.55.88l1.11,1.56a24.86,24.86,0,0,0,2.32,2.91,25.82,25.82,0,0,0,2.6,2.71A40,40,0,0,0,2456.44,909h.81a40,40,0,0,0,15.85-3.55,46.64,46.64,0,0,0,13-8.87,49.43,49.43,0,0,0,14.46-27.61,48.43,48.43,0,0,0,.16-15.69,45.87,45.87,0,0,0-1.77-7.7l-.33-1c-.29-.86-.57-1.7-1-2.76l-1.62-3.55a17.55,17.55,0,0,0-.92-1.77l-1.55-2.74-.46-.73-1.37-2a53.14,53.14,0,0,0-3.18-4.34,62.3,62.3,0,0,0-9.81-10,59.61,59.61,0,0,0-23.49-10.9,116.42,116.42,0,0,0-19.29-2.48c-4.17-.2-8.18-.3-12.65-.3l-12.89.15c-.39,0-.82,0-1.12.07a4.43,4.43,0,0,0-.78.11l-2.41.1c-4.26.22-9.34.45-15.13.59-3,.06-6.21.15-9.54.24-6.23.16-13,.33-20,.41l-33.82.28-33.9-.27c-7,0-13.72-.22-19.92-.39-3.36-.09-6.57-.19-9.61-.24-5.7-.13-10.72-.38-14.94-.58l-3.78-.2a9,9,0,0,0-1.29-.12l-3,0c-2.38-.08-4.33-.1-5.53-.1l-4.27,0c-4.47,0-8.48.1-12.69.31a115,115,0,0,0-19.24,2.47,59.64,59.64,0,0,0-23.6,11,60.8,60.8,0,0,0-9.57,9.74,54.28,54.28,0,0,0-3.31,4.5l-1.79,2.64-1.56,2.76a17,17,0,0,0-1,1.86l-1.69,3.7c-.35.89-.64,1.74-.91,2.6l-.36,1.07a47.74,47.74,0,0,0-1.75,7.6,50.13,50.13,0,0,0,14.65,43.38Z"></path>
            <rect class="cls-1" x="2186.96" y="761.25" width="280.72" height="33.04"></rect>
            <path class="cls-1"
                d="M2516.8,1763.13v107.06H992.9V1763.13h61.56V1743h17.81V912.43a44.6,44.6,0,0,0,13.17-8.59,29.13,29.13,0,0,0,3.17-3.24,29.72,29.72,0,0,0,3-3.67l1.39-2a12,12,0,0,0,.85-1.4l1.15-2,.92-1.91a42.51,42.51,0,0,0,4.06-16.51c.49-11-3.88-21.93-11.2-28.78v-3.23l8.14.73c.57,0,1.15.08,1.53.1,1.58.11,3.32.3,5.23.52l.51,0c3.94.43,8.84,1,14.56,1.22,2.68.12,5.49.28,8.43.44l1,.06c5.81.33,13,.74,20.29.91l4.91.13c3.95.12,8,.24,12,.24l17.41.13,17.21-.16c3.8,0,7.56-.13,11.24-.23l5.51-.15c4-.07,7.94-.28,11.71-.48l18.22-.94c5.82-.28,11-.74,15.21-1.12l.46,0c2-.19,3.89-.36,5.76-.49,2.81-.27,4.83-.57,5.8-.75l2.17-.18v3.25a38.21,38.21,0,0,0-11.2,28.75,42.91,42.91,0,0,0,4.15,16.7l1,2,1,1.72a15.12,15.12,0,0,0,1.07,1.74l1,1.39a45.16,45.16,0,0,0,6,6.86,46.51,46.51,0,0,0,13.5,8.88V1743h17.81v20.09h315.61V1743h17.81V912.43a44.6,44.6,0,0,0,13.17-8.59,29.13,29.13,0,0,0,3.17-3.24,29.72,29.72,0,0,0,3-3.67l1.39-2a12,12,0,0,0,.85-1.4l1.15-2,.92-1.91a42.51,42.51,0,0,0,4.06-16.51c.49-11-3.88-21.93-11.2-28.78v-3.23l8.14.73c.57,0,1.15.08,1.53.1,1.58.11,3.32.3,5.23.52l.51,0c3.94.43,8.84,1,14.56,1.22,2.68.12,5.49.28,8.43.44l1.05.06c5.81.33,13,.74,20.29.91l4.91.13c4,.12,8,.24,12,.24l17.41.13,17.21-.16c3.8,0,7.56-.13,11.24-.23l5.51-.15c4-.07,7.94-.28,11.71-.48l18.22-.94c5.82-.28,11-.74,15.21-1.12l.46,0c2-.19,3.89-.36,5.76-.49,2.81-.27,4.83-.57,5.8-.75l2.17-.18v3.25a38.21,38.21,0,0,0-11.2,28.75,42.91,42.91,0,0,0,4.15,16.7l1,2,1,1.72a15.12,15.12,0,0,0,1.07,1.74l1,1.39a45.16,45.16,0,0,0,6,6.86,46.51,46.51,0,0,0,13.5,8.88V1743h17.81v20.09h317.62V1743h17.81V912.43a44.6,44.6,0,0,0,13.17-8.59,29.13,29.13,0,0,0,3.17-3.24,29.72,29.72,0,0,0,2.95-3.67l1.39-2a12,12,0,0,0,.85-1.4l1.15-2,.92-1.91a42.51,42.51,0,0,0,4.06-16.51c.49-11-3.88-21.93-11.2-28.78v-3.23l8.14.73c.57,0,1.15.08,1.53.1,1.58.11,3.32.3,5.23.52l.51,0c3.94.43,8.84,1,14.56,1.22,2.68.12,5.49.28,8.43.44l1.05.06c5.81.33,13,.74,20.29.91l4.91.13c4,.12,8,.24,12,.24l17.41.13,17.21-.16c3.8,0,7.56-.13,11.24-.23l5.51-.15c4-.07,7.94-.28,11.71-.48l18.22-.94c5.82-.28,11-.74,15.21-1.12l.46,0c2.05-.19,3.89-.36,5.76-.49,2.81-.27,4.83-.57,5.8-.75l2.17-.18v3.25a38.21,38.21,0,0,0-11.2,28.75,42.91,42.91,0,0,0,4.15,16.7l1,2,1,1.72a15.12,15.12,0,0,0,1.07,1.74l1,1.39a45.16,45.16,0,0,0,6,6.86,46.51,46.51,0,0,0,13.5,8.88V1743h17.81v20.09Z"></path>
            <rect class="cls-1" x="909.38" y="1889.76" width="1700" height="102.77"></rect>
            <polygon class="cls-1"
                points="2604.85 499.19 2604.85 601.96 904.85 601.96 904.85 499.19 1754.85 251.36 2604.85 499.19"></polygon>
            <g id="_4" data-name="4">
                <path class="cls-1"
                    d="M1449,2497.93l-19.09-.13h-1.56l-33.6-.21c-23.16-28.61-51.93-51.24-83.52-69.08-26.47-15-54.92-26.54-83.73-35.47-15.06-4.38-30.33-8.68-45.69-13-51.55-14.47-104.07-29.07-152.78-47l-4.14-1.53c-31.94-13.25-64.19-24.5-94.47-38.88l-26-13-62.62-31.34q-36.43-20.3-70.55-42.22c-35.72-22.92-69.56-47-101.61-72-38.26-29.84-74-60.93-107.25-92.68q-6.33-6-12.53-12.1c-25.75-24.67-49.74-50-72.17-75.81a1295.09,1295.09,0,0,1-81.38-104q-24.74-35.06-46.53-70.08-7.36-12-14.42-24-32.6-55.41-58.51-110.09-23.84-50.08-42.5-99.15-22-57.54-37.48-113.17-14.13-50.29-23.44-98.55-4-20.65-7.24-40.86-4.23-34-8.29-66.47-2.61-20.94-5.14-41.27a1.64,1.64,0,0,1,0-.23q-1.1-27.35-2.13-53.64-1-23.92-1.87-47c-.76-19.88,0-39.31.79-58.29.5-11.88,1-23.57,1.22-35.1,0-.06,0-.13,0-.19q2.58-28,5.05-54.76,1.45-16,2.89-31.48,4.45-35.39,10.39-68.23c5.26-29.41,11.31-57.36,17.92-84v0c7.92-31.84,16.65-61.74,25.85-89.92q6.32-19.35,12.89-37.62,7.35-20.46,14.88-39.72c10.65-27.28,21.59-52.84,32.78-76.92C285,484,296.72,460.83,308.74,439q3.25-5.94,6.55-11.75c11-19.56,21.95-38.21,33-56.12,14.1-22.87,28.33-44.54,42.9-65.36,15.9-22.73,32.2-44.45,49.16-65.65,16.63-20.8,33.91-41.09,52.06-61.31q5.61-6.22,11.31-12.45,7.35-8,14.92-16.07a2.86,2.86,0,0,1,4-.11l.8.77,2.88,2.74,2,1.92,2,1.92,2,1.92a2.83,2.83,0,0,1,.13,4q-17,18.39-33,36.71c-13.12,15-25.75,30.17-38,45.54-16,20-31.33,40.45-46.26,61.71-15.1,21.5-29.79,43.85-44.3,67.47-12.27,20-24.41,40.86-36.56,62.91l-.36.65c-12.09,21.78-23.9,44.88-35.42,69.56-10.19,21.85-20.15,44.94-29.86,69.46Q258.21,604.11,248,633.17q-3.73,10.71-7.41,21.77c-8,24.26-15.73,49.84-22.86,76.88-7.58,28.69-14.5,59-20.47,91.18-4.88,26.22-9.12,53.64-12.56,82.36-.12.95-.24,1.91-.35,2.87q-3.42,40.72-7.11,84.62c0,.06,0,.13,0,.2q0,5.24-.18,10.53c-.59,26.13-2.36,53.12-1.06,81,.11,2.41.23,4.83.34,7.26q2.11,44.1,4.35,91.31a1.94,1.94,0,0,0,0,.24q.81,6.12,1.63,12.29,5.91,44.47,12.2,91.88c.06.39.11.78.16,1.17,5.81,34.69,13.41,70.41,23,107q12.08,46,28.56,93.53,18.22,52.29,42.3,106.08,20.6,45.81,45.85,92.37,20.08,37,43.32,74.19,9.6,15.06,19.72,30.17h0c20.12,30,41.84,60.12,65.47,89.84a1168.11,1168.11,0,0,0,86.72,97.65q12.21,12.29,25,24.34,28.82,27.7,60.14,54.6a1343.61,1343.61,0,0,0,109.06,84.27c33.34,23.14,68.47,45.21,105.45,65.89q5.45,3,10.94,6.05l86.36,42.37c11,5.13,22.3,9.83,33.73,14.35,19.18,7.6,38.79,14.73,58.26,22.65,22,8,44.1,15.07,66.66,21.78,42.84,12.76,87.19,24.16,134.75,37.56q8.87,2.76,17.77,5.83c29.87,10.28,59.73,23.19,88.17,40.35a340,340,0,0,1,44.41,32.35,323,323,0,0,1,46,48.66Q1443.07,2489,1449,2497.93Z"></path>
                <path class="cls-1"
                    d="M506.56,130.82c5.32-28.54,17-67.27,46.61-93.14a143.19,143.19,0,0,1,32.9-21.6C607.46,5.22,631.52,2.2,650.76.87l3-.15q10.42-.45,20.57,0a179.11,179.11,0,0,1,24.59,2.62s-.12,1.24-.34,3.46c-.27,2.06-.65,4.93-1.11,8.44-.8,4.5-1.78,10-2.88,16.18-.71,3.15-1.45,6.46-2.22,9.89l-1,3.82q-.75,2.81-1.51,5.61c-4.92,18.46-13.43,38.2-24.72,57.66A120.1,120.1,0,0,1,642.26,136c-26.65,23.18-60.53,34.32-89.91,38.61l-5.69,1-3.82.64-9.88,1.4c-6.19.76-26.15,17.27-38,25.76-9.36,6.73-13.73,8.51-15.76,8.61l-3.38.2s21-28.64,26.95-43.28c4.23-10.42,2-24.4,3.31-35.23Z"></path>
                <path class="cls-1"
                    d="M426.5,221.47c-13.62-9.85-36.07-22.88-43.44-41.5a29.94,29.94,0,0,1-.57-20.22c3.82-13.32,16.81-26.85,32.71-37.71l2.42-1.68c5.75-4,12-7.87,18.74-11.71,8.32-4.75,17.37-9.45,26.72-13.8.2,2,.3,3,.43,4.34a63.33,63.33,0,0,0,1,6.32l1,4c.74,2.4,1,3.2,1.26,4,2.75,7.84,8.26,17.44,14.43,28.19A113.15,113.15,0,0,1,490,159.86c6.56,18.51.13,36.68-13.71,51.3l-2.75,3.07-2,2.07L466,221.62c-3.7,3.35-12.07,18.83-22,28.51-7.86,7.68-13.12,11.08-15.32,12.32L425,264.54s17.68-22.72,16.65-30.32c-.75-5.43-8.87-8.26-13.76-11.77Z"></path>
                <path class="cls-1"
                    d="M331.16,343.72c-16.46-11.2-42.89-26-54.43-47.64a40.36,40.36,0,0,1-4.65-23.65c1.29-15.69,13.24-31.2,27.38-44.7l2.2-2c5.26-4.8,11.08-9.57,17.36-14.26,7.89-5.74,16.08-11.79,25.63-16.7.51,2.27.78,3.47,1.12,5,.45,1.95,1.08,4.42,2,7.31q.81,2.17,1.8,4.77l.79,1.88,1.29,2.81c4.37,9.2,12,20.41,20.59,32.91a173.37,173.37,0,0,1,12.89,21.08c10.63,21.58,7.7,43-3.66,60.36l-2.24,3.61-1.64,2.43-4.72,6.28c-3.19,3.95-8.68,22-17,33.36-6.62,9-11.44,13-13.49,14.49l-3.48,2.51s13.67-26.53,10.93-35.33c-2-6.28-11.13-9.41-17-13.4Z"></path>
                <path class="cls-1"
                    d="M253,475.17c-18.27-11.6-47.15-26.59-61.45-51.14a52.71,52.71,0,0,1-7.34-27.45c.72-18,10.88-37.74,24-54.93l2-2.62c5-6.11,10.13-12.46,16.48-18.33a327.69,327.69,0,0,1,25.51-21.56c.73,2.64,1.11,4,1.6,5.86l2.74,8.47,2.16,5.38.94,2.11,1.51,3.16c5.11,10.31,13.75,22.67,23.54,36.42a219,219,0,0,1,15.45,23.62c13.18,24.37,12.83,49.88,3,71.3l-2.07,4.33c-.46,1-.92,2-1.39,3-1.38,2.68-2.74,5.29-4.05,7.82-2.78,4.93-6.14,26.62-13.24,40.67-5.65,11.17-10.09,16.33-12,18.24l-3.11,3.33,4.64-17.49c2.18-9.33,3.89-19.94,1.94-24.95-2.8-7.17-12.61-10-19.16-14.1Z"></path>
                <path class="cls-1"
                    d="M188.13,631.64c-20-9.45-51.3-20.92-68.73-44.35a55.87,55.87,0,0,1-10.74-27.45c-2-19,6.73-40.65,18.14-60.32l1.8-3c4.32-7.06,9.22-14.2,14.62-21.35a319.08,319.08,0,0,1,23.72-25.79c1,2.62,1.58,4,2.29,5.84.9,2.25,2.11,5.1,3.74,8.38l2.81,5.27,1.19,2.06,1.89,3.05c6.46,10,16.39,21.47,28.44,34.57a219.3,219.3,0,0,1,18.47,22.31c16.32,23.43,18.52,49.71,11.32,73.34-.46,1.61-.93,3.23-1.39,4.85-.35,1.1-.71,2.2-1.07,3.31q-1.66,4.42-3.26,8.63c-2.28,5.49-3.24,28.38-8.92,43.89-4.71,12.28-7.94,18.45-9.6,20.72l-2.77,3.88s1-8.68,2.12-18.92c1.16-9.95,1.71-21.17-.86-26.07-3.68-7-14-8.56-21.22-11.91Z"></path>
                <path class="cls-1"
                    d="M139.66,810.8c-21.62-6.8-55-14-75.65-35.69a56.76,56.76,0,0,1-14.24-26.89C45,728.67,50,704.59,60.05,682.63l1.5-3.38c3.6-8,7.8-16.09,12.5-24.3,5.86-10.19,12.26-20.71,20.33-30.54,1.37,2.57,2.09,3.94,3,5.71,1.19,2.21,2.75,5,4.8,8.14l3.59,5.08,1.54,2,2.4,2.93c8,9.49,20.23,20.1,33.94,31.86,7.26,6.22,14.83,12.84,21.53,20.39,19.53,21.88,24.35,48.62,21.37,74.55l-.84,5.23c-.24,1.2-.47,2.39-.71,3.59-.8,3.23-1.57,6.38-2.33,9.43-1.37,6.09-.67,29.77-3.26,47-2.36,13.61-5.28,20.44-6.65,23.06-1.51,2.85-2.37,4.45-2.37,4.45s.85-37.68-5.47-47.11c-4.59-6.72-15.39-6.76-23.13-9.17Z"></path>
                <path class="cls-1"
                    d="M115.86,1004.85c-23-3.76-58.09-6.11-82.77-25.57a57.5,57.5,0,0,1-17.85-25.81c-6.8-19.57-5.47-45.52.88-70l1.13-3.74c2.72-8.83,6-17.93,9.86-27.19,4.74-11.49,10.27-23.36,16.42-34.95l1.15,1.54c.67.94,1.64,2.26,2.88,4,1.58,2.12,3.63,4.79,6.24,7.78l4.38,4.75L60,837.44l2.81,2.67c9.37,8.65,23.11,17.83,38.55,28,8.18,5.36,16.71,11.09,24.47,17.91,21.76,19.66,33.27,47.08,32.43,74.4-.07,1.86-.15,3.72-.23,5.58-.09,1.27-.19,2.55-.29,3.83-.42,3.48-.83,6.88-1.23,10.17-1.44,6.5,5.26,31.19,4.15,49.46-.73,14.54-2.87,22.11-3.94,25l-1.87,5s-3.47-39.39-11.67-48.26c-5.86-6.31-16.76-4.69-25-6Z"></path>
                <path class="cls-1"
                    d="M120.71,1211c-24-.32-59.94,2.74-88.22-13.73-9.64-5.73-16.66-13.92-21.9-24.19-9.75-19.4-11.58-46.77-9.08-73.35l.42-4.08a252.73,252.73,0,0,1,4.9-29.89c3.4-12.72,7.57-26,12.4-39l1.36,1.44,3.43,3.69c1.87,2,4.3,4.44,7.33,7.15l5.06,4.28,2.08,1.62,3.19,2.35c10.68,7.57,25.66,15,42.9,23.18,9.29,4.33,19,9,28.21,14.88,26.51,17.11,41,44,44.17,72.62.17,2,.35,3.9.53,5.86.08,1.35.16,2.7.23,4.05.05,3.69.1,7.31.15,10.81-.45,7,10.47,31.68,12.36,50.89,1.66,15.27.74,23.51.14,26.74-.69,3.53-1.07,5.52-1.07,5.52s-10-40.51-19.82-48.48c-7-5.66-17.79-2.27-26.39-2.34Z"></path>
                <path class="cls-1"
                    d="M158.45,1425.75c-24.21,3.54-61.06,12.87-91-.13A63.09,63.09,0,0,1,41,1403.86c-13.39-18.71-20.14-47-22.34-75.23-.1-1.44-.2-2.88-.31-4.33,0-10.34.7-21.19,1.75-32.36,1.35-13.87,3.4-28.4,6.16-42.81l1.62,1.29,4.09,3.32c2.22,1.77,5.09,4,8.62,6.32l5.84,3.68,2.37,1.36,3.63,2c12,6.23,28.65,11.61,47.25,17.44,9.85,3.09,20.17,6.46,30,11.23a108.31,108.31,0,0,1,57.22,68.6c.53,2,1.07,4,1.6,6l1,4.17,2.1,11.22c.61,3.61,3.92,11.65,7.95,21.16,4.65,9.36,9.76,20.24,12.57,30.08,4.45,15.6,5,24.32,5,27.78-.05,3.79-.08,5.92-.08,5.92s-17.54-40.49-28.92-47.17c-8.13-4.75-18.47.55-27.22,1.89Z"></path>
                <path class="cls-1"
                    d="M235.59,1643.28c-23.81,7.73-59.74,23.8-92.67,15.33-11.45-2.93-21.8-9.12-30.81-18.27-17-17.3-29.11-45.75-36.39-74.85l-.78-4.58c-1.77-10.85-3.11-22.28-4-34.14-1.15-14.71-1.7-30.22-1.51-45.73l1.88,1.08,4.76,2.79c2.58,1.48,5.88,3.3,9.9,5.18l6.59,2.87,2.66,1,4,1.44c13.36,4.51,31.21,7.37,51.16,10.37,10.56,1.59,21.66,3.38,32.54,6.71,30.66,10,56.78,32.78,70.15,62,.91,2,1.81,4,2.71,6,.59,1.39,1.17,2.79,1.75,4.18l4.17,11.34c1.85,7.68,20.72,30.5,30.41,49.82,7.39,15.51,9.56,24.51,10.17,28.13l1,6.18s-25.24-39.23-38-44.28c-9.13-3.57-18.66,3.71-27.29,6.57Z"></path>
                <path class="cls-1"
                    d="M356.24,1856c-23,12.38-55.35,34.62-91.79,32.38-12.89-.62-24.32-5.47-35.21-13.49-20.52-15.17-38.1-42.91-51-72.05l-1.95-4.49c-4.71-10.54-7.55-22.63-10.88-34.76-3.89-15.18-7.33-31.3-10-47.53l2.11.81,5.34,2.11c2.9,1.11,6.59,2.44,11,3.73l7.22,1.88,2.89.62,4.37.82c14.39,2.44,33,2.41,53.83,2.14,11-.14,22.6-.16,34.26,1.46,34.47,4.34,64.11,24.32,83.45,52.4,1.29,1.93,2.57,3.86,3.86,5.78l2.55,4.08,6.34,11.13c4.1,7.16,28.4,27.2,41.41,46,10.41,15,14.3,24,15.61,27.66,1.39,4,2.18,6.3,2.18,6.3s-33-36.7-46.89-39.8c-9.92-2.17-18.21,7.06-26.41,11.54Z"></path>
                <path class="cls-1"
                    d="M523,2055c-20.85,16.91-49.19,45.76-86.59,49.63-13,1.33-26.27-1.06-39.56-7-25.27-11-47.45-38.07-66.56-66.09l-2.86-4.37c-6.66-10.39-13.22-21.46-19.4-33.23-6.86-15.23-13.42-31.52-19.24-48.07l2.29.49,5.83,1.3c3.14.66,7.14,1.43,11.87,2l7.68.72,3.05.17,4.58.1c15.15,0,33.72-3,55.18-7.16,11.44-2.29,23.53-4.56,36.09-5.22,36.47-1.93,69.55,14.59,95.15,40.13l5.46,5,3.67,3.55,9.36,9.84c5.87,6.49,34.18,23.57,51.12,41,13.18,14.22,20.44,21.36,22.4,25.09,2.44,3.74,3.82,5.83,3.82,5.83s-10.85-7.43-23.62-14.89c-12-8.28-25.86-16.79-33.19-17.19-10.47-.58-17,10.52-24.47,16.61Z"></path>
                <path class="cls-1"
                    d="M737.29,2229.31c-17.56,21.27-40.69,57.16-77.7,67.41-12.87,3.6-26.9,3.36-41.66-.57-27.5-7.9-59.49-27.48-83.65-55l-3.81-4.1c-8.92-9.74-17.81-20.29-26.57-31.5-10.68-14.1-22.09-28.47-31.35-44.78l2.41.12,6.16.37a106.71,106.71,0,0,0,12.8-.31l8.2-.85,3.23-.46,4.81-.84c15.74-3,34.69-10.13,55.73-18.35,11.14-4.34,22.92-8.79,35.52-11.62a113.73,113.73,0,0,1,54.29,1.42,164.15,164.15,0,0,1,52.48,21.51l6.57,4.31,4.45,3.1,11.53,8.72c3.63,2.89,13.54,7.64,25.11,13.58,12.06,5.19,26,11.18,37,18.08,17.47,10.89,25.6,18.42,28.62,21.6l5.13,5.46s-50.44-23.81-66-21.45c-11.09,1.72-15.26,14.25-21.54,22Z"></path>
                <path class="cls-1"
                    d="M999.75,2363.08c-13.08,25.39-28,65.81-64.2,84.85-12.57,6.58-27.3,9.57-43.7,9-31.21-.52-66.56-19.27-99.38-39.79l-5-3.27c-11.64-8-23.88-15.91-35-26.56-14.12-12.69-28.43-26.57-42.07-41l2.56-.41,6.53-1c3.52-.57,7.94-1.36,13-2.62l8.15-2.29,3.18-1,4.71-1.69c15.35-5.83,33.05-16.53,52.62-28.71,10.27-6.29,21.41-13.24,34-19,36.19-16.51,77.46-13.14,115.47,2.07l7.91,2.77,5.41,2.06,14.18,6c9,4.1,45.88,9.63,71.39,20.19,20.83,6.87,31.22,12.3,35.15,14.79l6.69,4.22s-14.59-2.9-31.17-5.06c-16.78-1.51-34.48-5.57-42.22-2.63-10.9,3.68-12.26,17.45-16.87,26.57C1000.6,2361.4,1000.18,2362.24,999.75,2363.08Z"></path>
                <path class="cls-1"
                    d="M1280.06,2456.39c-15.17,25.28-36.54,64.66-63.3,87.41-9.87,8.17-19.49,13.33-30.33,15.6-20.91,3.93-44.42-1.18-83.86-16.15l-5.91-2.52c-13.93-6-28.22-12.89-42.69-20.46-18-9.39-36.37-19.91-54.21-31.14l2.57-1,6.58-2.52c3.53-1.39,8-3.24,13-5.7l7.95-4.23,3.06-1.79,4.5-2.81c14.58-9.48,30.39-24.41,47.77-41.29,9.2-8.93,19-18.23,30.42-26.26a146.48,146.48,0,0,1,118-19.36l8.42,2.38,5.79,1.81c5.22,1.74,10.14,4,14.89,6,9.48,3.43,47.92,11.11,73.08,27.14,19.28,13.3,27.64,22.45,30.16,26.78l4.68,6.83-8.15-5.48c-4.79-3.51-12.06-7.23-19.84-10.71-15.07-7.73-33.45-12.24-41.13-10.59-11.12,2.56-14.14,16.68-19.79,25.56Z"></path>
                <path class="cls-1"
                    d="M431.38,318.42c13.17,10.46,32.24,27.91,51.43,31a27.38,27.38,0,0,0,18.28-3.06c10.15-6,18.72-19.23,25.63-34.13l1-2.33c2.36-5.53,4.59-11.58,6.71-18.06,2.62-8,5.1-16.83,7.31-26-1.82-.07-2.78-.1-4-.13l-6-.49-3.9-.64c-2.35-.51-3.13-.7-3.92-.89-7.75-2-17.72-6.39-29-11.16a103.64,103.64,0,0,0-18.86-6.4c-18.93-4-36.13,5.45-48.26,21.59l-2.23,3.48-1.46,2.48q-1.83,3.42-3.65,6.84c-2.22,4.45-14.85,16.7-21.49,28.86-5.25,9.63-7,15.53-7.6,17.93-.59,2.63-.92,4.12-.92,4.12s17-23,24.52-24c5.4-.71,10.35,6.3,15.08,10Z"></path>
                <path class="cls-1"
                    d="M358.85,446.47c17.68,9.12,43.64,24.68,67.17,26.15,8.14.52,15.31-1,21.37-4.48,11.06-6.79,19.95-19.87,25-35.36l.78-2.38A175.57,175.57,0,0,0,477.81,412c1.32-7.94,2.78-16.7,4.34-26l-5,0-7.39-.25L465,385.3l-1.92-.22-2.91-.41c-9.6-1.47-22.29-5.18-36.66-9.11a150.33,150.33,0,0,0-23.76-4.95c-23.41-2.48-42.36,8.45-54,25.7L343.65,400l-1.33,2.61c-1.08,2.39-2.15,4.77-3.22,7.16-1.89,4.65-15,18.11-21,30.92-4.69,10.15-5.83,16.21-6.09,18.66-.26,2.68-.41,4.19-.41,4.19s16.57-24.74,25.5-26.46c6.4-1.24,13.59,5.25,19.94,8.49Z"></path>
                <path class="cls-1"
                    d="M300.72,578.05c20.7,6.14,51.18,17.52,77.71,14.72a51.51,51.51,0,0,0,23.84-8.51c13.08-8.62,21.22-24.11,25.78-41.09.23-.87.45-1.75.68-2.62,1.64-6.16,2.51-13,4-19.83a250.13,250.13,0,0,0,3.61-27.42l-5.58.83-8.32.95-5.54.31-2.23.07-3.39,0c-11.19-.05-26.07-1.9-42.92-3.63a166.14,166.14,0,0,0-27.31-1c-26.65,1.65-47.19,16.7-58.91,37l-2.29,4.19c-.46,1-.93,2-1.4,3q-1.56,4.2-3,8.19c-1.76,5.27-15.5,22.11-21.17,36.87-4.48,11.67-5.29,18.32-5.38,21-.05,2.9-.07,4.54-.07,4.54s16.73-29.58,26.65-33.18c7.13-2.6,15.78,2.82,23.21,5Z"></path>
                <path class="cls-1"
                    d="M250.29,728.42c21.83,3.62,54.25,11.36,81,5a49.61,49.61,0,0,0,23.08-12c12-10.75,18.81-27.73,21.44-45.9l.39-2.79c.9-6.62,1.26-13.73,1.55-21.12a266,266,0,0,0,.61-28.8l-5.6,1.57-8.39,2-5.62,1-2.27.35-3.46.46c-11.35,1.41-27,1.34-44,1.85a174.14,174.14,0,0,0-27.88,2.59c-27,5.18-46.3,23.46-55.9,46.12q-.8,2.36-1.58,4.73c-.33,1.1-.65,2.19-1,3.3-.73,3-1.46,6-2.16,8.89-1.18,5.71-13.26,25-17.35,41.07-3.38,12.67-3.16,19.75-2.69,22.57.42,3,.65,4.77.65,4.77a96.61,96.61,0,0,1,7.41-17.26C213.14,738,219,728.53,223.87,726c7-3.64,16.43.82,24.25,2.08Z"></path>
                <path class="cls-1"
                    d="M216.77,898.65c22.73.65,56.76,4.07,83.34-6.36a52.64,52.64,0,0,0,22.16-15.74c10-13,14.43-31.66,15.35-50.78,0-1,.05-2,.07-2.95a199.94,199.94,0,0,0-1-22.1c-1.12-9.27-2.34-19.39-3.64-30.1-2.5,1.07-3.83,1.65-5.54,2.4l-8.36,3.28-5.63,1.85-2.28.67-3.4,1c-11.18,3.11-26.56,5.35-43.91,8.27-9.18,1.54-18.84,3.39-28.19,6.57-26.6,9.23-45.52,30.68-50.54,56l-1,5.13-.6,3.57q-.6,4.91-1.15,9.56c-.36,6.12-11,27.82-12.44,45.21-1,13.78.23,21.13.94,24l1.23,4.87s7.28-36.53,17.33-43.07c6.7-4.78,16.88-1.47,25-1.28Z"></path>
                <path class="cls-1"
                    d="M207,1080.94c23.29-2.61,57.57-4,83.25-18.69a56.14,56.14,0,0,0,20.7-19.6c9.4-15,9.69-35.14,8-55.16-.1-1-.19-2-.28-3.07A211,211,0,0,0,315,961.59a310.43,310.43,0,0,0-8.25-30.87L301.66,934l-7.79,4.64-5.31,2.75-2.17,1L283.06,944c-11,4.83-26.47,9.36-43.83,14.88-9.19,2.93-18.82,6.24-28,10.9-27,13.36-40.52,38.6-43.23,65.66-.14,1.83-.29,3.67-.44,5.5-.05,1.27-.11,2.54-.17,3.81v10.13c-.36,6.45-6.29,30.6-5,49,.91,14.52,3.14,22,4.25,24.9,1.24,3.14,1.93,4.91,1.93,4.91s3-39.2,11.1-47.46c5.8-6,16.73-4,25-5Z"></path>
                <path class="cls-1"
                    d="M224.44,1272.45c23.19-6.18,58.63-12.86,82.44-32a57.09,57.09,0,0,0,17.77-23.41c7.24-16.92,3.55-37.75-.67-58.38-.23-1.05-.46-2.11-.7-3.16a224.18,224.18,0,0,0-6.8-23.25,331.25,331.25,0,0,0-12.61-31c-2.16,1.88-3.3,2.9-4.77,4.2l-7.28,6-5,3.64-2.07,1.4c-1.05.69-2.11,1.37-3.17,2-10.57,6.64-25.65,13.62-42.55,21.91-8.94,4.39-18.29,9.25-27,15.44-25.9,17.91-35.68,46.18-33.78,74.76.16,1.93.31,3.87.47,5.8l.45,4c.57,3.6,1.13,7.13,1.68,10.55,1.56,6.62-3.07,33.09,1.08,52,3.54,15,7.16,22.4,8.8,25.23l2.85,4.8s-1-10.31-1.16-21.82c-.43-11.47.74-24.24,4.79-29.28,5.35-7.12,16.63-6.68,24.93-8.94Z"></path>
                <path class="cls-1"
                    d="M273.9,1469c22.5-10,57.41-22.53,78.19-46a58.08,58.08,0,0,0,13.85-27c3.53-18.41-2.34-39.77-9.73-60.58l-1.29-3.15a243.3,243.3,0,0,0-11.13-23c-5.33-9.75-11.55-19.91-18.45-30-1.85,2.26-2.83,3.48-4.08,5l-6.33,7.27c-1.36,1.38-2.84,2.89-4.46,4.52l-1.84,1.76-2.86,2.6c-9.55,8.47-23.63,18-39.33,29.13-8.31,5.91-16.94,12.37-24.66,20.12a86.06,86.06,0,0,0-22.47,83.14l1.52,6c.4,1.37.79,2.72,1.19,4.08,1.23,3.66,2.44,7.24,3.61,10.7,2.5,6.73,3.5,34.62,9.87,54.1,6,15.08,11.26,22.16,13.37,24.86l3.77,4.53s-2.89-10.54-5.14-22.46c-2.63-11.79-2.22-25.76.4-31.41,4.16-8.25,15.73-9.55,23.77-13.19Z"></path>
                <path class="cls-1"
                    d="M359,1665.27c21.1-14.06,54.38-32.68,71.28-60.43a60.47,60.47,0,0,0,9.22-30.2c.28-9.89-2.07-20.11-6.25-30.24a171.62,171.62,0,0,0-14.54-30.94l-1.87-3.06a263.24,263.24,0,0,0-15.51-22c-7.19-9.23-15.37-18.74-24.24-28.12-1.47,2.64-2.24,4.06-3.24,5.88l-5.13,8.52-3.72,5.39-1.56,2.11-2.45,3.15c-8.19,10.27-20.82,22.36-34.79,36.41-7.39,7.45-15,15.51-21.47,24.78a91.18,91.18,0,0,0-7.93,90q1.31,3,2.63,5.94l1.95,4c1.92,3.61,3.81,7.13,5.63,10.54,3.9,6.52,9.59,35.56,20.2,54.48,9.17,14.53,15.62,21.16,18.34,23.58l4.68,4.11s-20.09-41.54-15.14-55c2.74-9.24,14.3-12.45,21.82-17.54Z"></path>
                <path class="cls-1"
                    d="M483.2,1854.66c18.87-18.09,49.27-43,61.36-74.61a64.43,64.43,0,0,0,3.84-32.92c-2.54-21-18.31-40.1-33.28-59.5-.83-1-1.65-1.91-2.47-2.86a280.45,280.45,0,0,0-19.77-20.26c-9-8.39-19.05-16.93-29.8-25.2l-.64,1.85-1.59,4.77q-1.43,3.77-3.67,9.67l-2.81,6.21-1.21,2.44-1.91,3.67c-6.47,12-17.13,26.6-28.79,43.48-6.17,8.94-12.46,18.57-17.34,29.25a96.52,96.52,0,0,0-8.11,48.41c2.24,15.89,8.54,31.52,17.53,45.83l3.78,5.75,2.73,3.89,7.7,10c5.16,6.16,16,35.72,32,52.38,12.08,13.63,19.9,19.49,23.12,21.57l5.53,3.51s-27.7-40.44-26.8-53.93c.59-9.68,12.1-15.2,18.7-21.65Z"></path>
                <path class="cls-1"
                    d="M650.09,2027.06c15.54-21.81,41.6-52.73,46.7-86.49A76.23,76.23,0,0,0,694,1906.1c-7-21-25-39.85-46.36-55.17l-3.3-2.34c-7.23-6-15.2-12-23.82-17.83-10.7-7.26-22.49-14.48-34.94-21.32,0,0-.12.71-.32,2s-.41,3-.73,5.22q-.75,4.15-1.94,10.68-.78,3.16-1.7,6.92l-.78,2.75-1.26,4.13c-4.35,13.57-12.47,30.53-21.17,50-4.61,10.33-9.2,21.4-12.16,33.33-8.8,34.6,5.6,68,29.16,95.15l5,5.38,3.53,3.61,9.75,9.21c6.5,5.52,25.82,31.74,44.68,47.29,15,12.24,24.07,17.06,27.76,18.7l6.32,2.76s-36.13-37.64-37.85-51.86c-1.27-10.21,9.23-17.7,14.74-25.55Z"></path>
                <path class="cls-1"
                    d="M858.43,2173.33c11.31-25.31,31.42-61.88,29.75-98a67.89,67.89,0,0,0-10.69-34.06c-12.88-18.3-34.31-35.75-59-48.1l-3.81-1.89c-9-4.39-18.85-8.51-29.31-12.41-12.89-5-25.77-11.18-39.85-16.07,0,0,0,.76.07,2.18s.15,3.18.26,5.57q0,4.47.09,11.47-.18,3.43-.39,7.51c-.08,1-.17,2-.25,3l-.48,4.52c-1.78,14.87-6.89,34.13-11.23,55.05-2.39,11.2-4.6,23.14-4.89,35.61-.54,35.4,18.84,70.72,50.16,92.46l6.48,4.26,4.56,2.82,12.43,7c8.13,4.06,32.72,29.14,55.71,41.25,18.61,8.8,29.32,11.55,33.58,12.34l7.29,1.32s-11.73-7.33-24.08-16.36c-12.58-8.62-24.89-20.47-27.18-27.93-3.42-10.44,5.73-20,9.71-29.08Z"></path>
                <path class="cls-1"
                    d="M1107.23,2279.41c5.85-27.92,18.2-69.19,7.94-104.58a86.51,86.51,0,0,0-18.67-32.62c-16.62-18.07-43.57-29-72.1-35.86l-4.26-1.35q-15.14-4.64-32.31-8.13c-14.19-2.9-29.49-5.34-45.31-7.12,0,0,.21.74.59,2.14s.91,3.1,1.59,5.44c.83,3,1.84,6.75,2.78,11.33q.63,3.43,1.36,7.51c.14,1,.29,2,.43,3l.56,4.59c1.62,15.15.92,35.17.78,58-.07,12.07.21,24.88,2.57,37.91,6.2,38.8,36.41,65.72,73.12,83.31l7.57,3.35,5.29,2.17,14.27,5.22c9.38,2.39,41.32,20.7,68,28.28,21.1,6,32.7,7.06,37.28,7.1l7.9-.18a294.14,294.14,0,0,1-28.56-12.54c-14.73-7.29-30.42-16.21-34.64-22.9-6.05-9.58,1.26-21.28,3.27-31.3C1106.86,2281.26,1107,2280.33,1107.23,2279.41Z"></path>
                <path class="cls-1"
                    d="M1426.1,2491.22l3.83,6.58h-1.56l-3.76-3.05c-3.91-3.2-12.6-12.25-29.53-28.63-9.77-11.18-22.51-22.65-32.56-34-11.09-9.95-20.3-19-25.07-21.51l-14.8-7.81-5.45-3.12c-2.63-1.46-5.13-3.25-7.86-4.56-18.52-10.52-36.25-22.31-51.54-35.89-16.5-14.62-30.17-31.34-39-50.77-5.76-12.94-9.28-25.89-12.58-38.34-6.12-23.52-10.56-43.81-16.14-59.26-.54-1.56-1.07-3.11-1.6-4.67-.38-1-.75-2-1.13-3.07-1.11-2.74-2.13-5.26-3.08-7.58-2-4.59-3.87-8.36-5.38-11.29-1.22-2.33-2.18-4.13-2.84-5.4l-1.08-2.12c16.26-.65,32.29-.77,50.84-.32a382.59,382.59,0,0,1,48,5.33l6.78,1.18c45.05,8.29,95.82,29.73,126.27,58.89,16.23,15.2,26.91,31.66,31.53,48.64,13,47.47-17.29,82.58-32.31,107.71l-1.56,2.5c-5.72,8.93-17.48,17-14.69,29.4a14.08,14.08,0,0,0,.53,1.87c1.42,4.15,4.77,9.49,8.74,15.54,4.21,7.44,9.48,15.58,14.6,23.1C1419.21,2477.79,1422.78,2485.87,1426.1,2491.22Z"></path>
                <path class="cls-1"
                    d="M3365.44,1084.93q-.92,23.1-1.86,47h0q-1,26.36-2.14,53.77-2.54,20.38-5.16,41.37-4.05,32.51-8.29,66.48-3.22,20.2-7.25,40.87s0,0,0,0q-9.39,48.18-23.43,98.55-15.58,55.53-37.49,113.17s0,0,0,0q-18.72,49-42.49,99.11h0q-26,54.6-58.51,110.09-7.05,12-14.42,24-21.86,34.94-46.52,70.07h0a1294.64,1294.64,0,0,1-81.36,104h0q-33.66,38.67-72.18,75.81-6.2,6-12.51,12.08l0,0c-33.29,31.75-69,62.83-107.24,92.67h0c-32.05,25-65.88,49.11-101.6,72h0q-34.12,21.89-70.55,42.22l-62.62,31.34a0,0,0,0,1,0,0l-25.95,13c-30.28,14.38-62.53,25.63-94.47,38.88l-4.13,1.53h0c-48.71,17.92-101.23,32.52-152.78,47h0c-15.35,4.31-30.61,8.61-45.67,13-28.81,8.93-57.26,20.51-83.72,35.47h0c-33.28,18.79-63.43,42.9-87.19,73.71l-53.19-.34q7.08-10.95,15.21-21.28a323,323,0,0,1,46-48.66h0a339.86,339.86,0,0,1,44.4-32.34c28.44-17.17,58.31-30.08,88.19-40.36q8.88-3.06,17.75-5.82c47.56-13.4,91.92-24.8,134.75-37.56,22.56-6.71,44.7-13.81,66.66-21.78,19.48-7.92,39.09-15,58.28-22.66,11.43-4.52,22.7-9.21,33.71-14.34l86.36-42.37c3.67-2,7.3-4,10.93-6.05h0c37-20.69,72.12-42.76,105.47-65.9a1345.42,1345.42,0,0,0,109-84.26h0q31.34-26.83,60.13-54.59,12.8-12.06,25-24.34h0a1167.49,1167.49,0,0,0,86.7-97.62c23.64-29.72,45.36-59.81,65.47-89.84h0q10.13-15.12,19.72-30.19,23.26-37.21,43.32-74.19s0,0,0,0q25.32-46.5,45.85-92.36h0q24.17-53.68,42.3-106.06h0q16.55-47.51,28.56-93.53s0,0,0,0c9.62-36.54,17.22-72.25,23-106.94.05-.39.1-.78.16-1.17q6.3-47.43,12.2-91.89.82-6.23,1.65-12.4,2.25-47.31,4.35-91.42h0c.11-2.43.23-4.85.34-7.26,1.31-27.9-.46-54.88-1.06-81h0q-.13-5.34-.18-10.63-3.69-44-7.12-84.72c-.11-1-.23-1.92-.35-2.87h0c-3.44-28.71-7.68-56.12-12.55-82.33h0c-6-32.14-12.9-62.47-20.46-91.16v0c-7.13-27-14.84-52.62-22.87-76.88q-3.66-11.07-7.41-21.78-10.18-29.1-20.78-55.78c-9.71-24.52-19.67-47.6-29.86-69.45h0c-11.52-24.68-23.33-47.78-35.41-69.56l-.36-.65c-12.15-22-24.29-42.93-36.56-62.9-14.51-23.62-29.2-46-44.31-67.48-14.93-21.26-30.27-41.7-46.25-61.71-12.26-15.37-24.89-30.48-38-45.53l0,0q-16.86-19.38-34.86-38.74l2-1.92,2-1.92,2-1.92,2-1.92,2.88-2.74,2.88-2.75q8.58,9.09,16.88,18.15,5.71,6.23,11.3,12.46h0c18.16,20.21,35.41,40.47,52,61.26h0c17,21.21,33.26,42.94,49.17,65.69,14.58,20.83,28.82,42.5,42.92,65.37,11.05,17.9,22,36.55,33,56.1q3.28,5.79,6.53,11.72h0c12,21.85,23.78,45,35.26,69.72v0c11.19,24.09,22.12,49.65,32.78,76.94h0q7.53,19.27,14.88,39.72,6.56,18.28,12.89,37.61h0c9.2,28.18,17.93,58.07,25.85,89.91v0c6.61,26.6,12.66,54.54,17.92,84h0q5.89,32.86,10.39,68.23,1.42,15.51,2.9,31.45s0,0,0,0q2.46,26.79,5,54.87c.2,11.56.73,23.27,1.23,35.18h0C3365.47,1045.61,3366.21,1065.05,3365.44,1084.93Z"></path>
                <path class="cls-1"
                    d="M3007.67,130.82c-5.31-28.54-17-67.27-46.61-93.14a143,143,0,0,0-32.9-21.6C2906.78,5.22,2882.72,2.2,2863.48.87l-3-.15q-10.43-.45-20.56,0a179.09,179.09,0,0,0-24.6,2.62s.13,1.24.34,3.46c.27,2.06.65,4.93,1.11,8.44.8,4.5,1.79,10,2.88,16.18.71,3.15,1.46,6.46,2.23,9.89.32,1.27.63,2.54,1,3.82.5,1.87,1,3.74,1.51,5.61,4.92,18.46,13.43,38.2,24.73,57.66A120.05,120.05,0,0,0,2872,136c26.65,23.18,60.54,34.32,89.91,38.61l5.7,1,3.81.64,9.89,1.4c6.18.76,26.14,17.27,38,25.76,9.36,6.73,13.73,8.51,15.76,8.61l3.38.2s-21-28.64-27-43.28c-4.23-10.42-2-24.4-3.3-35.23C3008,132.76,3007.82,131.79,3007.67,130.82Z"></path>
                <path class="cls-1"
                    d="M3087.73,221.47c13.62-9.85,36.08-22.88,43.45-41.5a29.94,29.94,0,0,0,.57-20.22c-3.83-13.32-16.81-26.85-32.71-37.71l-2.42-1.68c-5.76-4-12-7.87-18.75-11.71-8.32-4.75-17.36-9.45-26.72-13.8-.2,2-.3,3-.42,4.34a63.75,63.75,0,0,1-1,6.32l-1,4c-.73,2.4-1,3.2-1.26,4-2.74,7.84-8.26,17.44-14.43,28.19a112.27,112.27,0,0,0-8.86,18.12c-6.57,18.51-.14,36.68,13.7,51.3.92,1,1.84,2,2.75,3.07l2,2.07,5.57,5.32c3.69,3.35,12.07,18.83,22,28.51,7.86,7.68,13.13,11.08,15.33,12.32l3.78,2.09s-17.69-22.72-16.65-30.32c.74-5.43,8.86-8.26,13.75-11.77Z"></path>
                <path class="cls-1"
                    d="M3183.07,343.72c16.46-11.2,42.89-26,54.43-47.64a40.44,40.44,0,0,0,4.66-23.65c-1.3-15.69-13.25-31.2-27.38-44.7l-2.21-2c-5.26-4.8-11.08-9.57-17.35-14.26-7.9-5.74-16.08-11.79-25.63-16.7-.52,2.27-.78,3.47-1.13,5-.45,1.95-1.08,4.42-2,7.31l-1.8,4.77c-.27.62-.53,1.25-.8,1.88-.43.93-.85,1.87-1.28,2.81-4.38,9.2-12,20.41-20.59,32.91a172.19,172.19,0,0,0-12.9,21.08c-10.62,21.58-7.7,43,3.66,60.36l2.24,3.61,1.65,2.43c1.57,2.09,3.14,4.19,4.72,6.28,3.18,3.95,8.68,22,17,33.36,6.62,9,11.44,13,13.49,14.49l3.48,2.51s-13.67-26.53-10.92-35.33c1.95-6.28,11.13-9.41,17-13.4Z"></path>
                <path class="cls-1"
                    d="M3261.21,475.17c18.26-11.6,47.15-26.59,61.45-51.14a52.7,52.7,0,0,0,7.33-27.45c-.72-18-10.87-37.74-24-54.93-.69-.87-1.37-1.75-2.05-2.62-5-6.11-10.13-12.46-16.47-18.33a329.56,329.56,0,0,0-25.51-21.56c-.73,2.64-1.11,4-1.61,5.86l-2.74,8.47c-.66,1.64-1.37,3.43-2.16,5.38-.31.71-.62,1.41-.94,2.11-.5,1.06-1,2.11-1.51,3.16-5.11,10.31-13.75,22.67-23.53,36.42A217.55,217.55,0,0,0,3214,384.16c-13.18,24.37-12.82,49.88-3,71.3l2.07,4.33,1.38,3q2.08,4,4.06,7.82c2.77,4.93,6.13,26.62,13.24,40.67,5.65,11.17,10.08,16.33,12,18.24l3.11,3.33-4.64-17.49c-2.19-9.33-3.9-19.94-1.95-24.95,2.8-7.17,12.61-10,19.16-14.1Z"></path>
                <path class="cls-1"
                    d="M3326.1,631.64c20-9.45,51.31-20.92,68.74-44.35a55.86,55.86,0,0,0,10.73-27.45c2-19-6.72-40.65-18.13-60.32l-1.81-3c-4.31-7.06-9.21-14.2-14.61-21.35a322.78,322.78,0,0,0-23.72-25.79c-1.05,2.62-1.59,4-2.29,5.84-.91,2.25-2.11,5.1-3.75,8.38l-2.8,5.27-1.2,2.06-1.89,3.05c-6.46,10-16.39,21.47-28.44,34.57a220.63,220.63,0,0,0-18.47,22.31c-16.32,23.43-18.52,49.71-11.31,73.34l1.38,4.85c.36,1.1.71,2.2,1.07,3.31l3.27,8.63c2.27,5.49,3.24,28.38,8.91,43.89,4.71,12.28,7.95,18.45,9.61,20.72l2.77,3.88s-1-8.68-2.12-18.92c-1.17-9.95-1.71-21.17.86-26.07,3.68-7,14-8.56,21.22-11.91Z"></path>
                <path class="cls-1"
                    d="M3374.57,810.8c21.63-6.8,55-14,75.65-35.69a56.77,56.77,0,0,0,14.25-26.89c4.78-19.55-.26-43.63-10.28-65.59l-1.5-3.38c-3.61-8-7.81-16.09-12.51-24.3-5.86-10.19-12.26-20.71-20.32-30.54-1.37,2.57-2.09,3.94-3,5.71-1.19,2.21-2.76,5-4.81,8.14l-3.59,5.08c-.51.66-1,1.32-1.54,2l-2.4,2.93c-8,9.49-20.22,20.1-33.94,31.86-7.26,6.22-14.82,12.84-21.53,20.39-19.52,21.88-24.34,48.62-21.37,74.55.28,1.74.57,3.49.85,5.23.23,1.2.47,2.39.7,3.59.8,3.23,1.58,6.38,2.33,9.43,1.38,6.09.67,29.77,3.27,47,2.35,13.61,5.27,20.44,6.64,23.06l2.37,4.45s-.84-37.68,5.47-47.11c4.6-6.72,15.39-6.76,23.14-9.17Z"></path>
                <path class="cls-1"
                    d="M3398.37,1004.85c23.05-3.76,58.1-6.11,82.78-25.57A57.58,57.58,0,0,0,3499,953.47c6.79-19.57,5.46-45.52-.89-70-.37-1.25-.75-2.49-1.12-3.74-2.73-8.83-6-17.93-9.86-27.19-4.74-11.49-10.28-23.36-16.43-34.95l-1.15,1.54c-.67.94-1.63,2.26-2.88,4-1.57,2.12-3.62,4.79-6.23,7.78l-4.39,4.75-1.81,1.82-2.81,2.67c-9.37,8.65-23.11,17.83-38.55,28-8.17,5.36-16.71,11.09-24.47,17.91-21.76,19.66-33.26,47.08-32.43,74.4.08,1.86.15,3.72.23,5.58.1,1.27.19,2.55.29,3.83.42,3.48.83,6.88,1.23,10.17,1.45,6.5-5.26,31.19-4.15,49.46.73,14.54,2.87,22.11,4,25l1.86,5s3.48-39.39,11.67-48.26c5.87-6.31,16.77-4.69,25-6Z"></path>
                <path class="cls-1"
                    d="M3393.52,1211c24-.32,59.95,2.74,88.22-13.73,9.64-5.73,16.66-13.92,21.9-24.19,9.76-19.4,11.59-46.77,9.08-73.35-.13-1.36-.27-2.72-.41-4.08a254.89,254.89,0,0,0-4.91-29.89c-3.39-12.72-7.56-26-12.39-39l-1.36,1.44c-.81.86-2,2.1-3.43,3.69-1.88,2-4.3,4.44-7.33,7.15l-5.07,4.28-2.07,1.62-3.2,2.35c-10.68,7.57-25.66,15-42.89,23.18-9.3,4.33-19,9-28.21,14.88-26.52,17.11-41,44-44.17,72.62l-.54,5.86c-.07,1.35-.15,2.7-.23,4.05-.05,3.69-.1,7.31-.15,10.81.45,7-10.47,31.68-12.35,50.89-1.67,15.27-.75,23.51-.14,26.74.68,3.53,1.07,5.52,1.07,5.52s10-40.51,19.82-48.48c7-5.66,17.78-2.27,26.38-2.34Z"></path>
                <path class="cls-1"
                    d="M3355.78,1425.75c24.21,3.54,61.07,12.87,91.06-.13a63,63,0,0,0,26.4-21.76c13.39-18.71,20.14-47,22.34-75.23.11-1.44.21-2.88.31-4.33,0-10.34-.69-21.19-1.75-32.36-1.35-13.87-3.4-28.4-6.15-42.81l-1.62,1.29-4.09,3.32c-2.23,1.77-5.1,4-8.62,6.32l-5.84,3.68-2.38,1.36-3.63,2c-12,6.23-28.64,11.61-47.25,17.44-9.85,3.09-20.17,6.46-30,11.23a108.33,108.33,0,0,0-57.23,68.6l-1.59,6c-.33,1.39-.65,2.78-1,4.17-.72,3.84-1.42,7.59-2.09,11.22s-3.92,11.65-8,21.16c-4.64,9.36-9.76,20.24-12.56,30.08-4.46,15.6-5,24.32-5,27.78.06,3.79.09,5.92.09,5.92s17.53-40.49,28.91-47.17c8.13-4.75,18.48.55,27.22,1.89Z"></path>
                <path class="cls-1"
                    d="M3278.64,1643.28c23.82,7.73,59.75,23.8,92.68,15.33,11.44-2.93,21.79-9.12,30.8-18.27,17-17.3,29.11-45.75,36.39-74.85.26-1.52.53-3,.79-4.58,1.77-10.85,3.11-22.28,4-34.14,1.14-14.71,1.69-30.22,1.5-45.73l-1.87,1.08-4.76,2.79c-2.58,1.48-5.89,3.3-9.9,5.18l-6.6,2.87-2.66,1-4,1.44c-13.35,4.51-31.2,7.37-51.15,10.37-10.57,1.59-21.66,3.38-32.55,6.71-30.65,10-56.78,32.78-70.15,62-.9,2-1.81,4-2.71,6-.58,1.39-1.16,2.79-1.75,4.18-1.42,3.88-2.82,7.67-4.17,11.34-1.85,7.68-20.72,30.5-30.4,49.82-7.39,15.51-9.56,24.51-10.17,28.13l-1,6.18s25.24-39.23,38-44.28c9.12-3.57,18.65,3.71,27.28,6.57Z"></path>
                <path class="cls-1"
                    d="M3158,1856c23,12.38,55.35,34.62,91.8,32.38,12.88-.62,24.31-5.47,35.21-13.49,20.52-15.17,38.09-42.91,51-72.05l1.95-4.49c4.72-10.54,7.55-22.63,10.89-34.76,3.89-15.18,7.32-31.3,10-47.53l-2.1.81-5.35,2.11c-2.89,1.11-6.58,2.44-11,3.73l-7.23,1.88-2.89.62-4.37.82c-14.38,2.44-33,2.41-53.83,2.14-11-.14-22.6-.16-34.26,1.46-34.46,4.34-64.11,24.32-83.44,52.4l-3.87,5.78-2.55,4.08-6.34,11.13c-4.1,7.16-28.39,27.2-41.4,46-10.41,15-14.31,24-15.61,27.66l-2.18,6.3s33-36.7,46.88-39.8c9.92-2.17,18.21,7.06,26.42,11.54Z"></path>
                <path class="cls-1"
                    d="M2991.26,2055c20.85,16.91,49.19,45.76,86.59,49.63,13,1.33,26.28-1.06,39.57-7,25.27-11,47.44-38.07,66.56-66.09q1.42-2.19,2.86-4.37c6.66-10.39,13.22-21.46,19.39-33.23,6.86-15.23,13.43-31.52,19.24-48.07l-2.29.49-5.82,1.3c-3.15.66-7.14,1.43-11.87,2l-7.68.72-3.06.17-4.58.1c-15.14,0-33.71-3-55.17-7.16-11.45-2.29-23.53-4.56-36.1-5.22-36.46-1.93-69.54,14.59-95.14,40.13-1.83,1.66-3.64,3.33-5.47,5l-3.66,3.55-9.37,9.84c-5.86,6.49-34.17,23.57-51.11,41-13.19,14.22-20.45,21.36-22.4,25.09l-3.82,5.83s10.84-7.43,23.61-14.89c12-8.28,25.87-16.79,33.19-17.19,10.48-.58,17.05,10.52,24.47,16.61Z"></path>
                <path class="cls-1"
                    d="M2777,2229.31c17.55,21.27,40.69,57.16,77.69,67.41,12.88,3.6,26.91,3.36,41.67-.57,27.5-7.9,59.49-27.48,83.65-55l3.8-4.1c8.92-9.74,17.81-20.29,26.57-31.5,10.69-14.1,22.1-28.47,31.36-44.78l-2.42.12-6.16.37a106.71,106.71,0,0,1-12.8-.31l-8.2-.85-3.22-.46-4.82-.84c-15.74-3-34.68-10.13-55.72-18.35-11.14-4.34-22.92-8.79-35.52-11.62a113.78,113.78,0,0,0-54.3,1.42,164.09,164.09,0,0,0-52.47,21.51l-6.57,4.31-4.46,3.1-11.53,8.72c-3.63,2.89-13.54,7.64-25.1,13.58-12.06,5.19-26,11.18-37,18.08-17.48,10.89-25.61,18.42-28.63,21.6l-5.13,5.46s50.44-23.81,66-21.45c11.09,1.72,15.26,14.25,21.54,22Z"></path>
                <path class="cls-1"
                    d="M2514.49,2363.08c13.07,25.39,28,65.81,64.2,84.85,12.56,6.58,27.29,9.57,43.7,9,31.21-.52,66.56-19.27,99.38-39.79l5-3.27c11.64-8,23.89-15.91,35-26.56,14.13-12.69,28.44-26.57,42.07-41l-2.55-.41-6.54-1c-3.51-.57-7.93-1.36-13-2.62l-8.16-2.29-3.17-1-4.71-1.69c-15.36-5.83-33.05-16.53-52.62-28.71-10.27-6.29-21.42-13.24-34-19-36.2-16.51-77.46-13.14-115.47,2.07l-7.92,2.77-5.41,2.06-14.17,6c-9.05,4.1-45.89,9.63-71.4,20.19-20.82,6.87-31.22,12.3-35.14,14.79l-6.7,4.22s14.6-2.9,31.17-5.06c16.79-1.51,34.48-5.57,42.23-2.63,10.9,3.68,12.25,17.45,16.87,26.57C2513.63,2361.4,2514.05,2362.24,2514.49,2363.08Z"></path>
                <path class="cls-1"
                    d="M2234.17,2456.39c15.18,25.28,36.54,64.66,63.31,87.41,9.87,8.17,19.48,13.33,30.32,15.6,20.91,3.93,44.43-1.18,83.87-16.15l5.91-2.52c13.93-6,28.21-12.89,42.68-20.46,17.95-9.39,36.37-19.91,54.21-31.14l-2.56-1-6.59-2.52c-3.52-1.39-8-3.24-13-5.7l-7.95-4.23-3.06-1.79-4.49-2.81c-14.59-9.48-30.39-24.41-47.78-41.29-9.2-8.93-19-18.23-30.41-26.26a146.5,146.5,0,0,0-118-19.36l-8.42,2.38-5.78,1.81c-5.23,1.74-10.14,4-14.9,6-9.47,3.43-47.92,11.11-73.08,27.14-19.27,13.3-27.63,22.45-30.15,26.78l-4.69,6.83,8.16-5.48c4.78-3.51,12-7.23,19.83-10.71,15.07-7.73,33.46-12.24,41.14-10.59,11.11,2.56,14.14,16.68,19.79,25.56C2233.13,2454.73,2233.65,2455.56,2234.17,2456.39Z"></path>
                <path class="cls-1"
                    d="M3082.85,318.42c-13.16,10.46-32.23,27.91-51.42,31a27.37,27.37,0,0,1-18.28-3.06c-10.15-6-18.72-19.23-25.64-34.13l-1-2.33c-2.37-5.53-4.6-11.58-6.71-18.06-2.62-8-5.11-16.83-7.31-26,1.81-.07,2.78-.1,4-.13l6-.49,3.91-.64c2.35-.51,3.13-.7,3.91-.89,7.76-2,17.72-6.39,29-11.16a103.75,103.75,0,0,1,18.87-6.4c18.92-4,36.13,5.45,48.26,21.59l2.22,3.48,1.47,2.48q1.82,3.42,3.65,6.84c2.21,4.45,14.84,16.7,21.48,28.86,5.26,9.63,7.05,15.53,7.6,17.93.59,2.63.93,4.12.93,4.12s-17-23-24.53-24c-5.4-.71-10.35,6.3-15.08,10Z"></path>
                <path class="cls-1"
                    d="M3155.39,446.47c-17.69,9.12-43.65,24.68-67.18,26.15-8.14.52-15.31-1-21.37-4.48-11.06-6.79-19.94-19.87-25-35.36l-.78-2.38a173.11,173.11,0,0,1-4.66-18.37c-1.33-7.94-2.79-16.7-4.35-26l5,0,7.38-.25,4.86-.45,1.91-.22,2.91-.41c9.6-1.47,22.3-5.18,36.66-9.11a150.33,150.33,0,0,1,23.76-4.95c23.42-2.48,42.36,8.45,54,25.7l2.07,3.69,1.34,2.61,3.21,7.16c1.9,4.65,15,18.11,20.95,30.92,4.69,10.15,5.84,16.21,6.1,18.66.26,2.68.41,4.19.41,4.19s-16.58-24.74-25.51-26.46c-6.39-1.24-13.59,5.25-19.94,8.49Z"></path>
                <path class="cls-1"
                    d="M3213.52,578.05c-20.71,6.14-51.19,17.52-77.72,14.72a51.51,51.51,0,0,1-23.83-8.51c-13.09-8.62-21.22-24.11-25.79-41.09-.22-.87-.45-1.75-.68-2.62-1.63-6.16-2.5-13-4-19.83a252.59,252.59,0,0,1-3.61-27.42l5.58.83,8.33.95,5.54.31,2.23.07,3.39,0c11.19-.05,26.06-1.9,42.91-3.63a166.26,166.26,0,0,1,27.32-1c26.64,1.65,47.18,16.7,58.91,37l2.28,4.19,1.4,3c1,2.8,2.06,5.53,3,8.19,1.76,5.27,15.49,22.11,21.16,36.87,4.49,11.67,5.29,18.32,5.39,21,0,2.9.07,4.54.07,4.54s-16.73-29.58-26.66-33.18c-7.13-2.6-15.78,2.82-23.21,5Z"></path>
                <path class="cls-1"
                    d="M3263.94,728.42c-21.83,3.62-54.24,11.36-81,5a49.51,49.51,0,0,1-23.08-12c-12-10.75-18.81-27.73-21.44-45.9-.13-.93-.26-1.86-.4-2.79-.9-6.62-1.25-13.73-1.54-21.12a263.37,263.37,0,0,1-.62-28.8l5.6,1.57,8.4,2,5.61,1,2.27.35,3.46.46c11.36,1.41,27,1.34,44.06,1.85a174.25,174.25,0,0,1,27.88,2.59c27,5.18,46.29,23.46,55.9,46.12q.78,2.36,1.58,4.73c.32,1.1.65,2.19,1,3.3l2.16,8.89c1.19,5.71,13.27,25,17.36,41.07,3.38,12.67,3.16,19.75,2.68,22.57-.41,3-.65,4.77-.65,4.77a96.61,96.61,0,0,0-7.41-17.26c-4.65-8.87-10.5-18.32-15.37-20.86-7-3.64-16.43.82-24.26,2.08Z"></path>
                <path class="cls-1"
                    d="M3297.46,898.65c-22.73.65-56.76,4.07-83.33-6.36A52.61,52.61,0,0,1,3192,876.55c-10-13-14.43-31.66-15.35-50.78,0-1-.05-2-.07-2.95a199.94,199.94,0,0,1,1-22.1c1.12-9.27,2.34-19.39,3.64-30.1,2.5,1.07,3.83,1.65,5.55,2.4l8.35,3.28,5.63,1.85,2.28.67,3.41,1c11.17,3.11,26.56,5.35,43.9,8.27,9.19,1.54,18.85,3.39,28.2,6.57,26.6,9.23,45.52,30.68,50.54,56l1,5.13.6,3.57c.39,3.27.78,6.46,1.14,9.56.36,6.12,11,27.82,12.45,45.21,1,13.78-.24,21.13-.94,24-.79,3.12-1.24,4.87-1.24,4.87s-7.27-36.53-17.33-43.07c-6.69-4.78-16.88-1.47-25-1.28Z"></path>
                <path class="cls-1"
                    d="M3307.26,1080.94c-23.29-2.61-57.57-4-83.26-18.69a56.14,56.14,0,0,1-20.7-19.6c-9.39-15-9.68-35.14-8-55.16l.27-3.07a213.45,213.45,0,0,1,3.63-22.83,316,316,0,0,1,8.25-30.87c2.32,1.49,3.54,2.29,5.13,3.32l7.78,4.64,5.32,2.75,2.17,1,3.32,1.51c11,4.83,26.48,9.36,43.83,14.88,9.19,2.93,18.83,6.24,28,10.9,27,13.36,40.52,38.6,43.22,65.66.15,1.83.29,3.67.44,5.5.06,1.27.12,2.54.17,3.81v10.13c.37,6.45,6.29,30.6,5,49-.91,14.52-3.15,22-4.26,24.9l-1.92,4.91s-3-39.2-11.1-47.46c-5.81-6-16.74-4-25-5Z"></path>
                <path class="cls-1"
                    d="M3289.8,1272.45c-23.19-6.18-58.64-12.86-82.44-32a57.09,57.09,0,0,1-17.77-23.41c-7.24-16.92-3.55-37.75.66-58.38.23-1.05.47-2.11.7-3.16a221.88,221.88,0,0,1,6.81-23.25,331.25,331.25,0,0,1,12.61-31c2.15,1.88,3.29,2.9,4.76,4.2,1.89,1.55,4.31,3.54,7.29,6l5,3.64,2.07,1.4,3.18,2c10.57,6.64,25.65,13.62,42.54,21.91,8.95,4.39,18.29,9.25,27,15.44,25.9,17.91,35.68,46.18,33.78,74.76-.15,1.93-.31,3.87-.46,5.8-.15,1.33-.31,2.67-.46,4-.57,3.6-1.13,7.13-1.68,10.55-1.56,6.62,3.08,33.09-1.08,52-3.53,15-7.15,22.4-8.8,25.23l-2.84,4.8s1-10.31,1.16-21.82c.42-11.47-.74-24.24-4.79-29.28-5.36-7.12-16.64-6.68-24.94-8.94Z"></path>
                <path class="cls-1"
                    d="M3240.33,1469c-22.5-10-57.4-22.53-78.18-46a58.1,58.1,0,0,1-13.86-27c-3.52-18.41,2.35-39.77,9.74-60.58.42-1,.85-2.1,1.28-3.15a241,241,0,0,1,11.14-23c5.33-9.75,11.54-19.91,18.45-30,1.84,2.26,2.82,3.48,4.08,5l6.33,7.27,4.45,4.52,1.85,1.76,2.86,2.6c9.54,8.47,23.63,18,39.32,29.13,8.31,5.91,16.95,12.37,24.66,20.12a86,86,0,0,1,22.47,83.14c-.51,2-1,4-1.52,6-.39,1.37-.79,2.72-1.18,4.08l-3.62,10.7c-2.5,6.73-3.49,34.62-9.86,54.1-6,15.08-11.26,22.16-13.38,24.86l-3.77,4.53s2.89-10.54,5.14-22.46c2.63-11.79,2.22-25.76-.39-31.41-4.16-8.25-15.74-9.55-23.78-13.19Z"></path>
                <path class="cls-1"
                    d="M3155.19,1665.27c-21.1-14.06-54.37-32.68-71.28-60.43a60.57,60.57,0,0,1-9.22-30.2c-.27-9.89,2.08-20.11,6.26-30.24a170.88,170.88,0,0,1,14.53-30.94l1.88-3.06a263,263,0,0,1,15.5-22c7.2-9.23,15.37-18.74,24.24-28.12,1.48,2.64,2.25,4.06,3.24,5.88l5.13,8.52q1.71,2.46,3.72,5.39c.53.7,1,1.41,1.57,2.11l2.44,3.15c8.19,10.27,20.82,22.36,34.79,36.41,7.4,7.45,15,15.51,21.48,24.78a91.21,91.21,0,0,1,7.93,90q-1.32,3-2.63,5.94l-1.95,4-5.63,10.54c-3.91,6.52-9.59,35.56-20.2,54.48-9.18,14.53-15.63,21.16-18.35,23.58l-4.67,4.11s20.08-41.54,15.13-55c-2.74-9.24-14.3-12.45-21.82-17.54Z"></path>
                <path class="cls-1"
                    d="M3031,1854.66c-18.86-18.09-49.26-43-61.35-74.61a64.44,64.44,0,0,1-3.85-32.92c2.55-21,18.31-40.1,33.29-59.5l2.46-2.86a282.57,282.57,0,0,1,19.77-20.26c9-8.39,19.06-16.93,29.8-25.2,0,0,.23.64.65,1.85l1.58,4.77q1.44,3.77,3.67,9.67c.86,1.9,1.8,4,2.81,6.21l1.21,2.44,1.92,3.67c6.47,12,17.12,26.6,28.78,43.48,6.18,8.94,12.47,18.57,17.35,29.25a96.63,96.63,0,0,1,8.11,48.41c-2.24,15.89-8.54,31.52-17.53,45.83q-1.89,2.88-3.79,5.75l-2.73,3.89-7.69,10c-5.17,6.16-16,35.72-32,52.38-12.08,13.63-19.89,19.49-23.12,21.57l-5.53,3.51s27.7-40.44,26.81-53.93c-.59-9.68-12.1-15.2-18.71-21.65Z"></path>
                <path class="cls-1"
                    d="M2864.14,2027.06c-15.53-21.81-41.59-52.73-46.7-86.49a76.37,76.37,0,0,1,2.79-34.47c7-21,25-39.85,46.36-55.17l3.3-2.34c7.23-6,15.2-12,23.82-17.83,10.7-7.26,22.5-14.48,34.95-21.32,0,0,.11.71.31,2s.42,3,.73,5.22q.77,4.15,1.94,10.68l1.71,6.92c.25.92.51,1.83.77,2.75.42,1.37.85,2.75,1.26,4.13,4.36,13.57,12.47,30.53,21.17,50,4.61,10.33,9.21,21.4,12.16,33.33,8.8,34.6-5.59,68-29.15,95.15q-2.47,2.7-5,5.38l-3.52,3.61-9.76,9.21c-6.5,5.52-25.82,31.74-44.67,47.29-15,12.24-24.08,17.06-27.77,18.7l-6.32,2.76s36.13-37.64,37.85-51.86c1.27-10.21-9.23-17.7-14.73-25.55Z"></path>
                <path class="cls-1"
                    d="M2655.8,2173.33c-11.31-25.31-31.42-61.88-29.74-98a67.88,67.88,0,0,1,10.68-34.06c12.88-18.3,34.31-35.75,59.05-48.1l3.8-1.89c9-4.39,18.85-8.51,29.32-12.41,12.89-5,25.76-11.18,39.85-16.07,0,0,0,.76-.08,2.18s-.15,3.18-.26,5.57q0,4.47-.09,11.47.18,3.43.39,7.51c.09,1,.17,2,.26,3l.48,4.52c1.78,14.87,6.88,34.13,11.22,55.05,2.4,11.2,4.61,23.14,4.89,35.61.54,35.4-18.84,70.72-50.16,92.46l-6.47,4.26-4.56,2.82-12.43,7c-8.13,4.06-32.73,29.14-55.72,41.25-18.61,8.8-29.31,11.55-33.58,12.34l-7.29,1.32s11.73-7.33,24.08-16.36c12.59-8.62,24.9-20.47,27.19-27.93,3.41-10.44-5.73-20-9.72-29.08Z"></path>
                <path class="cls-1"
                    d="M2407,2279.41c-5.84-27.92-18.19-69.19-7.93-104.58a86.62,86.62,0,0,1,18.66-32.62c16.62-18.07,43.57-29,72.11-35.86l4.25-1.35c10.09-3.09,20.89-5.79,32.32-8.13,14.18-2.9,29.48-5.34,45.3-7.12,0,0-.21.74-.59,2.14l-1.58,5.44c-.84,3-1.84,6.75-2.79,11.33l-1.35,7.51c-.15,1-.29,2-.44,3l-.55,4.59c-1.62,15.15-.92,35.17-.79,58,.07,12.07-.2,24.88-2.57,37.91-6.19,38.8-36.41,65.72-73.12,83.31l-7.56,3.35-5.29,2.17-14.27,5.22c-9.38,2.39-41.32,20.7-68,28.28-21.1,6-32.7,7.06-37.28,7.1l-7.9-.18a294.6,294.6,0,0,0,28.55-12.54c14.73-7.29,30.42-16.21,34.65-22.9,6-9.58-1.26-21.28-3.27-31.3Z"></path>
                <path class="cls-1"
                    d="M2108.14,2398.16c-15-25.13-45.32-60.24-32.31-107.7,4.62-17,15.3-33.45,31.53-48.65,30.44-29.16,81.21-50.6,126.27-58.89l6.77-1.18a383,383,0,0,1,48-5.33c18.55-.45,34.57-.32,50.84.32,0,0-.37.74-1.08,2.12s-1.62,3.07-2.84,5.4c-1.52,2.93-3.39,6.7-5.39,11.29l-3.07,7.58c-.38,1-.75,2.05-1.13,3.07l-1.6,4.67c-5.58,15.46-10,35.74-16.14,59.26-3.29,12.45-6.82,25.4-12.59,38.34-16.94,37.46-52,64.81-90.5,86.66-2.72,1.31-5.22,3.1-7.85,4.56l-5.45,3.12-14.8,7.81c-4.77,2.47-14,11.56-25.07,21.51-10.06,11.34-22.8,22.81-32.57,34-16.92,16.38-25.61,25.43-29.53,28.63l-6.7,5.45,5.22-9c3.31-5.36,6.89-13.44,12.37-20.66,5.13-7.51,10.4-15.66,14.6-23.09,4.59-7,8.37-13.05,9.28-17.42,2.79-12.41-9-20.47-14.69-29.4Z"></path>
            </g>
        </g>
    </g>
</svg>